<mxfile host="app.diagrams.net" modified="2021-01-29T13:25:29.357Z" agent="5.0 (Windows NT 10.0; Win64; x64) AppleWebKit/537.36 (KHTML, like Gecko) Chrome/87.0.4280.141 Safari/537.36" etag="CnnYGSpudb6I9gjwSgV4" version="14.1.9" type="github">
  <diagram id="ZsBfRqcbH99QROAvJv4S" name="Page-1">
    <mxGraphModel dx="2524" dy="2874" grid="1" gridSize="10" guides="1" tooltips="1" connect="1" arrows="1" fold="1" page="1" pageScale="1" pageWidth="1654" pageHeight="2336" math="0" shadow="0">
      <root>
        <mxCell id="0" />
        <mxCell id="1" parent="0" />
        <mxCell id="FxF3UWBgYlLPX7A-So-d-1" value="" style="group" parent="1" vertex="1" connectable="0">
          <mxGeometry x="-70" width="140" height="150" as="geometry" />
        </mxCell>
        <mxCell id="FxF3UWBgYlLPX7A-So-d-2" value="" style="rounded=0;whiteSpace=wrap;html=1;" parent="FxF3UWBgYlLPX7A-So-d-1" vertex="1">
          <mxGeometry width="140" height="150" as="geometry" />
        </mxCell>
        <mxCell id="FxF3UWBgYlLPX7A-So-d-3" value="헤더+메뉴&lt;br&gt;/template/header.jsp" style="rounded=0;whiteSpace=wrap;html=1;fillColor=#f8cecc;strokeColor=#b85450;" parent="FxF3UWBgYlLPX7A-So-d-1" vertex="1">
          <mxGeometry x="10" y="30" width="120" height="30" as="geometry" />
        </mxCell>
        <mxCell id="FxF3UWBgYlLPX7A-So-d-4" value="배너&lt;br&gt;/template/banner.jsp" style="rounded=0;whiteSpace=wrap;html=1;fillColor=#d5e8d4;strokeColor=#82b366;" parent="FxF3UWBgYlLPX7A-So-d-1" vertex="1">
          <mxGeometry x="10" y="70" width="120" height="30" as="geometry" />
        </mxCell>
        <mxCell id="FxF3UWBgYlLPX7A-So-d-5" value="푸터&lt;br&gt;/template/footer.jsp" style="rounded=0;whiteSpace=wrap;html=1;fillColor=#dae8fc;strokeColor=#6c8ebf;" parent="FxF3UWBgYlLPX7A-So-d-1" vertex="1">
          <mxGeometry x="10" y="110" width="120" height="30" as="geometry" />
        </mxCell>
        <mxCell id="FxF3UWBgYlLPX7A-So-d-6" value="템플릿 페이지" style="text;html=1;strokeColor=none;fillColor=none;align=center;verticalAlign=middle;whiteSpace=wrap;rounded=0;" parent="FxF3UWBgYlLPX7A-So-d-1" vertex="1">
          <mxGeometry x="30" y="5" width="80" height="20" as="geometry" />
        </mxCell>
        <mxCell id="FxF3UWBgYlLPX7A-So-d-7" value="" style="group" parent="1" vertex="1" connectable="0">
          <mxGeometry x="-1110" y="538" width="920" height="1260" as="geometry" />
        </mxCell>
        <mxCell id="FxF3UWBgYlLPX7A-So-d-8" value="" style="rounded=1;whiteSpace=wrap;html=1;arcSize=3;" parent="FxF3UWBgYlLPX7A-So-d-7" vertex="1">
          <mxGeometry x="-15" y="-24.75" width="950" height="1317.5" as="geometry" />
        </mxCell>
        <mxCell id="FxF3UWBgYlLPX7A-So-d-9" value="" style="rounded=1;whiteSpace=wrap;html=1;strokeColor=#000000;fontColor=#000000;align=left;arcSize=5;" parent="FxF3UWBgYlLPX7A-So-d-7" vertex="1">
          <mxGeometry x="180" y="21" width="550" height="189" as="geometry" />
        </mxCell>
        <mxCell id="FxF3UWBgYlLPX7A-So-d-10" value="3. 게시글 등록" style="shape=callout;whiteSpace=wrap;html=1;perimeter=calloutPerimeter;align=center;fillColor=#f5f5f5;strokeColor=#666666;fontColor=#333333;position2=0.5;size=10;position=0.5;" parent="FxF3UWBgYlLPX7A-So-d-7" vertex="1">
          <mxGeometry x="195" width="140" height="40" as="geometry" />
        </mxCell>
        <mxCell id="FxF3UWBgYlLPX7A-So-d-11" value="" style="rounded=0;whiteSpace=wrap;html=1;fillColor=#f8cecc;strokeColor=#b85450;" parent="FxF3UWBgYlLPX7A-So-d-7" vertex="1">
          <mxGeometry x="195" y="47" width="120" height="30" as="geometry" />
        </mxCell>
        <mxCell id="FxF3UWBgYlLPX7A-So-d-12" value="게시글입력&lt;br&gt;/board/write.jsp" style="rounded=0;whiteSpace=wrap;html=1;" parent="FxF3UWBgYlLPX7A-So-d-7" vertex="1">
          <mxGeometry x="195" y="107" width="120" height="60" as="geometry" />
        </mxCell>
        <mxCell id="FxF3UWBgYlLPX7A-So-d-13" value="" style="rounded=0;whiteSpace=wrap;html=1;fillColor=#dae8fc;strokeColor=#6c8ebf;" parent="FxF3UWBgYlLPX7A-So-d-7" vertex="1">
          <mxGeometry x="195" y="167" width="120" height="30" as="geometry" />
        </mxCell>
        <mxCell id="FxF3UWBgYlLPX7A-So-d-14" value="" style="rounded=0;whiteSpace=wrap;html=1;fillColor=#d5e8d4;strokeColor=#82b366;" parent="FxF3UWBgYlLPX7A-So-d-7" vertex="1">
          <mxGeometry x="195" y="77" width="120" height="30" as="geometry" />
        </mxCell>
        <mxCell id="FxF3UWBgYlLPX7A-So-d-15" value="게시글 등록 처리&lt;br&gt;/board/write.do" style="rounded=0;whiteSpace=wrap;html=1;fontColor=#FF3333;" parent="FxF3UWBgYlLPX7A-So-d-7" vertex="1">
          <mxGeometry x="405" y="85.5" width="120" height="60" as="geometry" />
        </mxCell>
        <mxCell id="FxF3UWBgYlLPX7A-So-d-16" value="" style="edgeStyle=orthogonalEdgeStyle;rounded=0;orthogonalLoop=1;jettySize=auto;html=1;strokeColor=#3333FF;" parent="FxF3UWBgYlLPX7A-So-d-7" edge="1">
          <mxGeometry x="-45" y="-623" as="geometry">
            <mxPoint x="315" y="120" as="sourcePoint" />
            <mxPoint x="405" y="120" as="targetPoint" />
            <Array as="points">
              <mxPoint x="375" y="120" />
              <mxPoint x="375" y="120" />
            </Array>
          </mxGeometry>
        </mxCell>
        <mxCell id="FxF3UWBgYlLPX7A-So-d-17" value="user_nick&lt;br&gt;board_title&lt;br&gt;board_text" style="edgeLabel;html=1;align=left;verticalAlign=middle;resizable=0;points=[];" parent="FxF3UWBgYlLPX7A-So-d-16" vertex="1" connectable="0">
          <mxGeometry x="-0.1933" y="-1" relative="1" as="geometry">
            <mxPoint x="-30" y="-27" as="offset" />
          </mxGeometry>
        </mxCell>
        <mxCell id="FxF3UWBgYlLPX7A-So-d-18" value="" style="rounded=0;whiteSpace=wrap;html=1;fillColor=#f8cecc;strokeColor=#b85450;" parent="FxF3UWBgYlLPX7A-So-d-7" vertex="1">
          <mxGeometry x="602" y="47" width="120" height="30" as="geometry" />
        </mxCell>
        <mxCell id="FxF3UWBgYlLPX7A-So-d-19" value="게시글 상세페이지&lt;br&gt;/board/detail.jsp" style="rounded=0;whiteSpace=wrap;html=1;" parent="FxF3UWBgYlLPX7A-So-d-7" vertex="1">
          <mxGeometry x="602" y="107" width="120" height="60" as="geometry" />
        </mxCell>
        <mxCell id="FxF3UWBgYlLPX7A-So-d-20" style="edgeStyle=orthogonalEdgeStyle;rounded=0;orthogonalLoop=1;jettySize=auto;html=1;exitX=1;exitY=0.5;exitDx=0;exitDy=0;entryX=0;entryY=0.15;entryDx=0;entryDy=0;entryPerimeter=0;" parent="FxF3UWBgYlLPX7A-So-d-7" source="FxF3UWBgYlLPX7A-So-d-15" target="FxF3UWBgYlLPX7A-So-d-19" edge="1">
          <mxGeometry x="-45" y="-623" as="geometry">
            <Array as="points">
              <mxPoint x="565" y="116" />
              <mxPoint x="565" y="116" />
            </Array>
          </mxGeometry>
        </mxCell>
        <mxCell id="FxF3UWBgYlLPX7A-So-d-21" value="등록성공" style="edgeLabel;html=1;align=center;verticalAlign=middle;resizable=0;points=[];" parent="FxF3UWBgYlLPX7A-So-d-20" vertex="1" connectable="0">
          <mxGeometry x="-0.205" y="-4" relative="1" as="geometry">
            <mxPoint as="offset" />
          </mxGeometry>
        </mxCell>
        <mxCell id="FxF3UWBgYlLPX7A-So-d-22" value="" style="rounded=0;whiteSpace=wrap;html=1;fillColor=#dae8fc;strokeColor=#6c8ebf;" parent="FxF3UWBgYlLPX7A-So-d-7" vertex="1">
          <mxGeometry x="602" y="167" width="120" height="30" as="geometry" />
        </mxCell>
        <mxCell id="FxF3UWBgYlLPX7A-So-d-23" value="" style="rounded=0;whiteSpace=wrap;html=1;fillColor=#d5e8d4;strokeColor=#82b366;" parent="FxF3UWBgYlLPX7A-So-d-7" vertex="1">
          <mxGeometry x="602" y="77" width="120" height="30" as="geometry" />
        </mxCell>
        <mxCell id="FxF3UWBgYlLPX7A-So-d-24" value="" style="rounded=0;whiteSpace=wrap;html=1;fillColor=#f8cecc;strokeColor=#b85450;" parent="FxF3UWBgYlLPX7A-So-d-7" vertex="1">
          <mxGeometry x="35" y="47" width="120" height="30" as="geometry" />
        </mxCell>
        <mxCell id="FxF3UWBgYlLPX7A-So-d-25" value="카테고리 메인페이지&lt;br&gt;/board/main.jsp" style="rounded=0;whiteSpace=wrap;html=1;" parent="FxF3UWBgYlLPX7A-So-d-7" vertex="1">
          <mxGeometry x="35" y="107" width="120" height="60" as="geometry" />
        </mxCell>
        <mxCell id="FxF3UWBgYlLPX7A-So-d-26" style="edgeStyle=orthogonalEdgeStyle;rounded=0;orthogonalLoop=1;jettySize=auto;html=1;exitX=0.5;exitY=1;exitDx=0;exitDy=0;entryX=0.5;entryY=1;entryDx=0;entryDy=0;" parent="FxF3UWBgYlLPX7A-So-d-7" source="FxF3UWBgYlLPX7A-So-d-28" target="FxF3UWBgYlLPX7A-So-d-13" edge="1">
          <mxGeometry x="-45" y="-623" as="geometry">
            <Array as="points">
              <mxPoint x="95" y="227" />
              <mxPoint x="255" y="227" />
            </Array>
          </mxGeometry>
        </mxCell>
        <mxCell id="FxF3UWBgYlLPX7A-So-d-27" value="게시글 등록하기 버튼 클릭" style="edgeLabel;html=1;align=center;verticalAlign=middle;resizable=0;points=[];" parent="FxF3UWBgYlLPX7A-So-d-26" vertex="1" connectable="0">
          <mxGeometry x="-0.27" y="-1" relative="1" as="geometry">
            <mxPoint x="32" as="offset" />
          </mxGeometry>
        </mxCell>
        <mxCell id="FxF3UWBgYlLPX7A-So-d-28" value="" style="rounded=0;whiteSpace=wrap;html=1;fillColor=#dae8fc;strokeColor=#6c8ebf;" parent="FxF3UWBgYlLPX7A-So-d-7" vertex="1">
          <mxGeometry x="35" y="167" width="120" height="30" as="geometry" />
        </mxCell>
        <mxCell id="FxF3UWBgYlLPX7A-So-d-29" value="" style="rounded=0;whiteSpace=wrap;html=1;fillColor=#d5e8d4;strokeColor=#82b366;" parent="FxF3UWBgYlLPX7A-So-d-7" vertex="1">
          <mxGeometry x="35" y="77" width="120" height="30" as="geometry" />
        </mxCell>
        <mxCell id="FxF3UWBgYlLPX7A-So-d-30" value="" style="rounded=1;whiteSpace=wrap;html=1;strokeColor=#000000;fontColor=#000000;align=left;arcSize=5;" parent="FxF3UWBgYlLPX7A-So-d-7" vertex="1">
          <mxGeometry x="180" y="268" width="550" height="189" as="geometry" />
        </mxCell>
        <mxCell id="FxF3UWBgYlLPX7A-So-d-31" value="4. 게시글 수정" style="shape=callout;whiteSpace=wrap;html=1;perimeter=calloutPerimeter;align=center;fillColor=#f5f5f5;strokeColor=#666666;fontColor=#333333;position2=0.5;size=10;position=0.5;" parent="FxF3UWBgYlLPX7A-So-d-7" vertex="1">
          <mxGeometry x="195" y="247" width="140" height="40" as="geometry" />
        </mxCell>
        <mxCell id="FxF3UWBgYlLPX7A-So-d-32" value="" style="rounded=0;whiteSpace=wrap;html=1;fillColor=#f8cecc;strokeColor=#b85450;" parent="FxF3UWBgYlLPX7A-So-d-7" vertex="1">
          <mxGeometry x="195" y="294" width="120" height="30" as="geometry" />
        </mxCell>
        <mxCell id="FxF3UWBgYlLPX7A-So-d-33" value="" style="rounded=0;whiteSpace=wrap;html=1;fillColor=#dae8fc;strokeColor=#6c8ebf;" parent="FxF3UWBgYlLPX7A-So-d-7" vertex="1">
          <mxGeometry x="195" y="414" width="120" height="30" as="geometry" />
        </mxCell>
        <mxCell id="FxF3UWBgYlLPX7A-So-d-34" value="" style="rounded=0;whiteSpace=wrap;html=1;fillColor=#d5e8d4;strokeColor=#82b366;" parent="FxF3UWBgYlLPX7A-So-d-7" vertex="1">
          <mxGeometry x="195" y="324" width="120" height="30" as="geometry" />
        </mxCell>
        <mxCell id="FxF3UWBgYlLPX7A-So-d-35" value="게시글 수정 처리&lt;br&gt;/board/edit.do" style="rounded=0;whiteSpace=wrap;html=1;fontColor=#FF3333;" parent="FxF3UWBgYlLPX7A-So-d-7" vertex="1">
          <mxGeometry x="405" y="332.5" width="120" height="60" as="geometry" />
        </mxCell>
        <mxCell id="FxF3UWBgYlLPX7A-So-d-36" value="" style="edgeStyle=orthogonalEdgeStyle;rounded=0;orthogonalLoop=1;jettySize=auto;html=1;strokeColor=#3333FF;" parent="FxF3UWBgYlLPX7A-So-d-7" edge="1">
          <mxGeometry x="-45" y="-623" as="geometry">
            <mxPoint x="315" y="367" as="sourcePoint" />
            <mxPoint x="405" y="367" as="targetPoint" />
            <Array as="points">
              <mxPoint x="375" y="367" />
              <mxPoint x="375" y="367" />
            </Array>
          </mxGeometry>
        </mxCell>
        <mxCell id="FxF3UWBgYlLPX7A-So-d-37" value="board_no" style="edgeLabel;html=1;align=left;verticalAlign=middle;resizable=0;points=[];" parent="FxF3UWBgYlLPX7A-So-d-36" vertex="1" connectable="0">
          <mxGeometry x="-0.1933" y="-1" relative="1" as="geometry">
            <mxPoint x="-30" y="-15" as="offset" />
          </mxGeometry>
        </mxCell>
        <mxCell id="FxF3UWBgYlLPX7A-So-d-38" value="" style="rounded=0;whiteSpace=wrap;html=1;fillColor=#f8cecc;strokeColor=#b85450;" parent="FxF3UWBgYlLPX7A-So-d-7" vertex="1">
          <mxGeometry x="602" y="294" width="120" height="30" as="geometry" />
        </mxCell>
        <mxCell id="FxF3UWBgYlLPX7A-So-d-39" value="게시글 상세페이지&lt;br&gt;/board/detail.jsp" style="rounded=0;whiteSpace=wrap;html=1;" parent="FxF3UWBgYlLPX7A-So-d-7" vertex="1">
          <mxGeometry x="602" y="354" width="120" height="60" as="geometry" />
        </mxCell>
        <mxCell id="FxF3UWBgYlLPX7A-So-d-40" style="edgeStyle=orthogonalEdgeStyle;rounded=0;orthogonalLoop=1;jettySize=auto;html=1;exitX=1;exitY=0.5;exitDx=0;exitDy=0;entryX=0;entryY=0.15;entryDx=0;entryDy=0;entryPerimeter=0;" parent="FxF3UWBgYlLPX7A-So-d-7" source="FxF3UWBgYlLPX7A-So-d-35" target="FxF3UWBgYlLPX7A-So-d-39" edge="1">
          <mxGeometry x="-45" y="-623" as="geometry">
            <Array as="points">
              <mxPoint x="565" y="363" />
              <mxPoint x="565" y="363" />
            </Array>
          </mxGeometry>
        </mxCell>
        <mxCell id="FxF3UWBgYlLPX7A-So-d-41" value="삭제" style="edgeLabel;html=1;align=center;verticalAlign=middle;resizable=0;points=[];" parent="FxF3UWBgYlLPX7A-So-d-40" vertex="1" connectable="0">
          <mxGeometry x="-0.205" y="-4" relative="1" as="geometry">
            <mxPoint as="offset" />
          </mxGeometry>
        </mxCell>
        <mxCell id="FxF3UWBgYlLPX7A-So-d-42" value="" style="rounded=0;whiteSpace=wrap;html=1;fillColor=#dae8fc;strokeColor=#6c8ebf;" parent="FxF3UWBgYlLPX7A-So-d-7" vertex="1">
          <mxGeometry x="602" y="414" width="120" height="30" as="geometry" />
        </mxCell>
        <mxCell id="FxF3UWBgYlLPX7A-So-d-43" value="" style="rounded=0;whiteSpace=wrap;html=1;fillColor=#d5e8d4;strokeColor=#82b366;" parent="FxF3UWBgYlLPX7A-So-d-7" vertex="1">
          <mxGeometry x="602" y="324" width="120" height="30" as="geometry" />
        </mxCell>
        <mxCell id="FxF3UWBgYlLPX7A-So-d-44" value="" style="rounded=0;whiteSpace=wrap;html=1;fillColor=#f8cecc;strokeColor=#b85450;" parent="FxF3UWBgYlLPX7A-So-d-7" vertex="1">
          <mxGeometry x="35" y="294" width="120" height="30" as="geometry" />
        </mxCell>
        <mxCell id="FxF3UWBgYlLPX7A-So-d-45" value="카테고리 메인페이지&lt;br&gt;/board/main.jsp" style="rounded=0;whiteSpace=wrap;html=1;" parent="FxF3UWBgYlLPX7A-So-d-7" vertex="1">
          <mxGeometry x="35" y="354" width="120" height="60" as="geometry" />
        </mxCell>
        <mxCell id="FxF3UWBgYlLPX7A-So-d-46" value="" style="rounded=0;whiteSpace=wrap;html=1;fillColor=#dae8fc;strokeColor=#6c8ebf;" parent="FxF3UWBgYlLPX7A-So-d-7" vertex="1">
          <mxGeometry x="35" y="414" width="120" height="30" as="geometry" />
        </mxCell>
        <mxCell id="FxF3UWBgYlLPX7A-So-d-47" value="" style="rounded=0;whiteSpace=wrap;html=1;fillColor=#d5e8d4;strokeColor=#82b366;" parent="FxF3UWBgYlLPX7A-So-d-7" vertex="1">
          <mxGeometry x="35" y="324" width="120" height="30" as="geometry" />
        </mxCell>
        <mxCell id="FxF3UWBgYlLPX7A-So-d-48" value="게시글 수정페이지&lt;br&gt;/board/edit.jsp" style="rounded=0;whiteSpace=wrap;html=1;" parent="FxF3UWBgYlLPX7A-So-d-7" vertex="1">
          <mxGeometry x="195" y="354" width="120" height="60" as="geometry" />
        </mxCell>
        <mxCell id="FxF3UWBgYlLPX7A-So-d-49" value="성공, 실패 jsp를&lt;br&gt;만들 것인가?&lt;br&gt;-&lt;br&gt;성공시 상세페이지로&lt;br&gt;넘어갈 것인가?" style="shape=note;whiteSpace=wrap;html=1;backgroundOutline=1;darkOpacity=0.05;align=center;fillColor=#f5f5f5;strokeColor=#666666;fontColor=#333333;" parent="FxF3UWBgYlLPX7A-So-d-7" vertex="1">
          <mxGeometry x="740" y="307" width="120" height="130" as="geometry" />
        </mxCell>
        <mxCell id="FxF3UWBgYlLPX7A-So-d-50" value="등록 성공 jsp를&lt;br&gt;만들 것인가?&lt;br&gt;-&lt;br&gt;성공시 상세페이지로&lt;br&gt;넘어갈 것인가?" style="shape=note;whiteSpace=wrap;html=1;backgroundOutline=1;darkOpacity=0.05;align=center;fillColor=#f5f5f5;strokeColor=#666666;fontColor=#333333;" parent="FxF3UWBgYlLPX7A-So-d-7" vertex="1">
          <mxGeometry x="740" y="57" width="120" height="130" as="geometry" />
        </mxCell>
        <mxCell id="FxF3UWBgYlLPX7A-So-d-51" value="" style="rounded=1;whiteSpace=wrap;html=1;strokeColor=#000000;fontColor=#000000;align=left;arcSize=5;" parent="FxF3UWBgYlLPX7A-So-d-7" vertex="1">
          <mxGeometry x="180" y="518" width="550" height="189" as="geometry" />
        </mxCell>
        <mxCell id="FxF3UWBgYlLPX7A-So-d-52" value="5. 게시글 삭제" style="shape=callout;whiteSpace=wrap;html=1;perimeter=calloutPerimeter;align=center;fillColor=#f5f5f5;strokeColor=#666666;fontColor=#333333;position2=0.5;size=10;position=0.5;" parent="FxF3UWBgYlLPX7A-So-d-7" vertex="1">
          <mxGeometry x="195" y="497" width="140" height="40" as="geometry" />
        </mxCell>
        <mxCell id="FxF3UWBgYlLPX7A-So-d-53" value="" style="rounded=0;whiteSpace=wrap;html=1;fillColor=#f8cecc;strokeColor=#b85450;" parent="FxF3UWBgYlLPX7A-So-d-7" vertex="1">
          <mxGeometry x="195" y="544" width="120" height="30" as="geometry" />
        </mxCell>
        <mxCell id="FxF3UWBgYlLPX7A-So-d-54" value="" style="rounded=0;whiteSpace=wrap;html=1;fillColor=#dae8fc;strokeColor=#6c8ebf;" parent="FxF3UWBgYlLPX7A-So-d-7" vertex="1">
          <mxGeometry x="195" y="664" width="120" height="30" as="geometry" />
        </mxCell>
        <mxCell id="FxF3UWBgYlLPX7A-So-d-55" value="" style="rounded=0;whiteSpace=wrap;html=1;fillColor=#d5e8d4;strokeColor=#82b366;" parent="FxF3UWBgYlLPX7A-So-d-7" vertex="1">
          <mxGeometry x="195" y="574" width="120" height="30" as="geometry" />
        </mxCell>
        <mxCell id="FxF3UWBgYlLPX7A-So-d-56" value="게시글 삭제 처리&lt;br&gt;/board/delete.do" style="rounded=0;whiteSpace=wrap;html=1;fontColor=#FF3333;" parent="FxF3UWBgYlLPX7A-So-d-7" vertex="1">
          <mxGeometry x="405" y="582.5" width="120" height="60" as="geometry" />
        </mxCell>
        <mxCell id="FxF3UWBgYlLPX7A-So-d-57" value="" style="edgeStyle=orthogonalEdgeStyle;rounded=0;orthogonalLoop=1;jettySize=auto;html=1;strokeColor=#3333FF;" parent="FxF3UWBgYlLPX7A-So-d-7" edge="1">
          <mxGeometry x="-45" y="-623" as="geometry">
            <mxPoint x="315" y="617" as="sourcePoint" />
            <mxPoint x="405" y="617" as="targetPoint" />
            <Array as="points">
              <mxPoint x="375" y="617" />
              <mxPoint x="375" y="617" />
            </Array>
          </mxGeometry>
        </mxCell>
        <mxCell id="FxF3UWBgYlLPX7A-So-d-58" value="board_no" style="edgeLabel;html=1;align=left;verticalAlign=middle;resizable=0;points=[];" parent="FxF3UWBgYlLPX7A-So-d-57" vertex="1" connectable="0">
          <mxGeometry x="-0.1933" y="-1" relative="1" as="geometry">
            <mxPoint x="-30" y="-15" as="offset" />
          </mxGeometry>
        </mxCell>
        <mxCell id="FxF3UWBgYlLPX7A-So-d-59" value="" style="rounded=0;whiteSpace=wrap;html=1;fillColor=#f8cecc;strokeColor=#b85450;" parent="FxF3UWBgYlLPX7A-So-d-7" vertex="1">
          <mxGeometry x="602" y="544" width="120" height="30" as="geometry" />
        </mxCell>
        <mxCell id="FxF3UWBgYlLPX7A-So-d-60" value="&lt;span&gt;카테고리 메인페이지&lt;/span&gt;&lt;br&gt;&lt;span&gt;/board/main.jsp&lt;/span&gt;" style="rounded=0;whiteSpace=wrap;html=1;" parent="FxF3UWBgYlLPX7A-So-d-7" vertex="1">
          <mxGeometry x="602" y="604" width="120" height="60" as="geometry" />
        </mxCell>
        <mxCell id="FxF3UWBgYlLPX7A-So-d-61" style="edgeStyle=orthogonalEdgeStyle;rounded=0;orthogonalLoop=1;jettySize=auto;html=1;exitX=1;exitY=0.5;exitDx=0;exitDy=0;entryX=0;entryY=0.15;entryDx=0;entryDy=0;entryPerimeter=0;" parent="FxF3UWBgYlLPX7A-So-d-7" source="FxF3UWBgYlLPX7A-So-d-56" target="FxF3UWBgYlLPX7A-So-d-60" edge="1">
          <mxGeometry x="-45" y="-623" as="geometry">
            <Array as="points">
              <mxPoint x="565" y="613" />
              <mxPoint x="565" y="613" />
            </Array>
          </mxGeometry>
        </mxCell>
        <mxCell id="FxF3UWBgYlLPX7A-So-d-62" value="삭제" style="edgeLabel;html=1;align=center;verticalAlign=middle;resizable=0;points=[];" parent="FxF3UWBgYlLPX7A-So-d-61" vertex="1" connectable="0">
          <mxGeometry x="-0.205" y="-4" relative="1" as="geometry">
            <mxPoint as="offset" />
          </mxGeometry>
        </mxCell>
        <mxCell id="FxF3UWBgYlLPX7A-So-d-63" value="" style="rounded=0;whiteSpace=wrap;html=1;fillColor=#dae8fc;strokeColor=#6c8ebf;" parent="FxF3UWBgYlLPX7A-So-d-7" vertex="1">
          <mxGeometry x="602" y="664" width="120" height="30" as="geometry" />
        </mxCell>
        <mxCell id="FxF3UWBgYlLPX7A-So-d-64" value="" style="rounded=0;whiteSpace=wrap;html=1;fillColor=#d5e8d4;strokeColor=#82b366;" parent="FxF3UWBgYlLPX7A-So-d-7" vertex="1">
          <mxGeometry x="602" y="574" width="120" height="30" as="geometry" />
        </mxCell>
        <mxCell id="FxF3UWBgYlLPX7A-So-d-65" value="" style="rounded=0;whiteSpace=wrap;html=1;fillColor=#f8cecc;strokeColor=#b85450;" parent="FxF3UWBgYlLPX7A-So-d-7" vertex="1">
          <mxGeometry x="35" y="544" width="120" height="30" as="geometry" />
        </mxCell>
        <mxCell id="FxF3UWBgYlLPX7A-So-d-66" value="카테고리 메인페이지&lt;br&gt;/board/main.jsp" style="rounded=0;whiteSpace=wrap;html=1;" parent="FxF3UWBgYlLPX7A-So-d-7" vertex="1">
          <mxGeometry x="35" y="604" width="120" height="60" as="geometry" />
        </mxCell>
        <mxCell id="FxF3UWBgYlLPX7A-So-d-67" style="edgeStyle=orthogonalEdgeStyle;rounded=0;orthogonalLoop=1;jettySize=auto;html=1;exitX=0.5;exitY=1;exitDx=0;exitDy=0;entryX=0.5;entryY=1;entryDx=0;entryDy=0;" parent="FxF3UWBgYlLPX7A-So-d-7" source="FxF3UWBgYlLPX7A-So-d-69" target="FxF3UWBgYlLPX7A-So-d-54" edge="1">
          <mxGeometry x="-45" y="-623" as="geometry">
            <Array as="points">
              <mxPoint x="95" y="727" />
              <mxPoint x="255" y="727" />
            </Array>
          </mxGeometry>
        </mxCell>
        <mxCell id="FxF3UWBgYlLPX7A-So-d-68" value="상세페이지 클릭" style="edgeLabel;html=1;align=center;verticalAlign=middle;resizable=0;points=[];" parent="FxF3UWBgYlLPX7A-So-d-67" vertex="1" connectable="0">
          <mxGeometry x="0.2035" y="1" relative="1" as="geometry">
            <mxPoint x="-23" as="offset" />
          </mxGeometry>
        </mxCell>
        <mxCell id="FxF3UWBgYlLPX7A-So-d-69" value="" style="rounded=0;whiteSpace=wrap;html=1;fillColor=#dae8fc;strokeColor=#6c8ebf;" parent="FxF3UWBgYlLPX7A-So-d-7" vertex="1">
          <mxGeometry x="35" y="664" width="120" height="30" as="geometry" />
        </mxCell>
        <mxCell id="FxF3UWBgYlLPX7A-So-d-70" value="" style="rounded=0;whiteSpace=wrap;html=1;fillColor=#d5e8d4;strokeColor=#82b366;" parent="FxF3UWBgYlLPX7A-So-d-7" vertex="1">
          <mxGeometry x="35" y="574" width="120" height="30" as="geometry" />
        </mxCell>
        <mxCell id="FxF3UWBgYlLPX7A-So-d-71" value="게시글 상세페이지&lt;br&gt;/board/detail.jsp" style="rounded=0;whiteSpace=wrap;html=1;" parent="FxF3UWBgYlLPX7A-So-d-7" vertex="1">
          <mxGeometry x="195" y="604" width="120" height="60" as="geometry" />
        </mxCell>
        <mxCell id="FxF3UWBgYlLPX7A-So-d-72" value="성공, 실패 jsp를&lt;br&gt;만들 것인가?&lt;br&gt;-&lt;br&gt;성공시 상세페이지로&lt;br&gt;넘어갈 것인가?" style="shape=note;whiteSpace=wrap;html=1;backgroundOutline=1;darkOpacity=0.05;align=center;fillColor=#f5f5f5;strokeColor=#666666;fontColor=#333333;" parent="FxF3UWBgYlLPX7A-So-d-7" vertex="1">
          <mxGeometry x="740" y="556" width="120" height="130" as="geometry" />
        </mxCell>
        <mxCell id="FxF3UWBgYlLPX7A-So-d-73" style="edgeStyle=orthogonalEdgeStyle;rounded=0;orthogonalLoop=1;jettySize=auto;html=1;exitX=0.5;exitY=1;exitDx=0;exitDy=0;entryX=0.5;entryY=1;entryDx=0;entryDy=0;" parent="FxF3UWBgYlLPX7A-So-d-7" edge="1">
          <mxGeometry x="-45" y="-623" as="geometry">
            <mxPoint x="95" y="444" as="sourcePoint" />
            <mxPoint x="255" y="444" as="targetPoint" />
            <Array as="points">
              <mxPoint x="95" y="474" />
              <mxPoint x="255" y="474" />
            </Array>
          </mxGeometry>
        </mxCell>
        <mxCell id="FxF3UWBgYlLPX7A-So-d-74" value="게시글 수정하기 버튼 클릭" style="edgeLabel;html=1;align=center;verticalAlign=middle;resizable=0;points=[];" parent="FxF3UWBgYlLPX7A-So-d-73" vertex="1" connectable="0">
          <mxGeometry x="-0.27" y="-1" relative="1" as="geometry">
            <mxPoint x="32" y="1" as="offset" />
          </mxGeometry>
        </mxCell>
        <mxCell id="FxF3UWBgYlLPX7A-So-d-75" style="edgeStyle=orthogonalEdgeStyle;rounded=0;orthogonalLoop=1;jettySize=auto;html=1;entryX=1;entryY=0.5;entryDx=0;entryDy=0;" parent="FxF3UWBgYlLPX7A-So-d-7" edge="1">
          <mxGeometry x="-45" y="-623" as="geometry">
            <mxPoint x="405" y="134" as="sourcePoint" />
            <mxPoint x="314" y="133.5" as="targetPoint" />
            <Array as="points">
              <mxPoint x="360" y="134" />
            </Array>
          </mxGeometry>
        </mxCell>
        <mxCell id="FxF3UWBgYlLPX7A-So-d-76" value="등록 실패" style="edgeLabel;html=1;align=center;verticalAlign=middle;resizable=0;points=[];" parent="FxF3UWBgYlLPX7A-So-d-75" vertex="1" connectable="0">
          <mxGeometry x="-0.28" y="2" relative="1" as="geometry">
            <mxPoint x="-14" y="-1" as="offset" />
          </mxGeometry>
        </mxCell>
        <mxCell id="FxF3UWBgYlLPX7A-So-d-77" style="edgeStyle=orthogonalEdgeStyle;rounded=0;orthogonalLoop=1;jettySize=auto;html=1;entryX=1;entryY=0.5;entryDx=0;entryDy=0;" parent="FxF3UWBgYlLPX7A-So-d-7" edge="1">
          <mxGeometry x="-45" y="-623" as="geometry">
            <mxPoint x="405" y="379" as="sourcePoint" />
            <mxPoint x="314" y="378.5" as="targetPoint" />
            <Array as="points">
              <mxPoint x="360" y="379" />
            </Array>
          </mxGeometry>
        </mxCell>
        <mxCell id="FxF3UWBgYlLPX7A-So-d-78" value="수정 실패" style="edgeLabel;html=1;align=center;verticalAlign=middle;resizable=0;points=[];" parent="FxF3UWBgYlLPX7A-So-d-77" vertex="1" connectable="0">
          <mxGeometry x="-0.28" y="2" relative="1" as="geometry">
            <mxPoint x="-14" y="-1" as="offset" />
          </mxGeometry>
        </mxCell>
        <mxCell id="FxF3UWBgYlLPX7A-So-d-79" value="특정 글의 정보가 미리 표시 되도록 구성&lt;br&gt;글번호를 이용해 정보를 불러온 뒤&lt;br&gt;화면에 표시하도록 한다!" style="text;html=1;strokeColor=none;fillColor=none;align=center;verticalAlign=middle;whiteSpace=wrap;rounded=0;fontStyle=0;fontColor=#0000FF;" parent="FxF3UWBgYlLPX7A-So-d-7" vertex="1">
          <mxGeometry x="365" y="270" width="220" height="64" as="geometry" />
        </mxCell>
        <mxCell id="FxF3UWBgYlLPX7A-So-d-80" value="특정 글의 번호를 받아 삭제한다" style="text;html=1;strokeColor=none;fillColor=none;align=center;verticalAlign=middle;whiteSpace=wrap;rounded=0;fontStyle=0;fontColor=#0000FF;" parent="FxF3UWBgYlLPX7A-So-d-7" vertex="1">
          <mxGeometry x="370" y="537" width="190" height="28.5" as="geometry" />
        </mxCell>
        <mxCell id="FxF3UWBgYlLPX7A-So-d-81" value="" style="rounded=1;whiteSpace=wrap;html=1;strokeColor=#000000;fontColor=#000000;align=left;arcSize=5;" parent="FxF3UWBgYlLPX7A-So-d-7" vertex="1">
          <mxGeometry x="180" y="768" width="550" height="189" as="geometry" />
        </mxCell>
        <mxCell id="FxF3UWBgYlLPX7A-So-d-82" value="6. 게시글 좋아요(생성, 취소)" style="shape=callout;whiteSpace=wrap;html=1;perimeter=calloutPerimeter;align=center;fillColor=#f5f5f5;strokeColor=#666666;fontColor=#333333;position2=0.5;size=10;position=0.5;" parent="FxF3UWBgYlLPX7A-So-d-7" vertex="1">
          <mxGeometry x="195" y="747" width="160" height="40" as="geometry" />
        </mxCell>
        <mxCell id="FxF3UWBgYlLPX7A-So-d-83" value="" style="rounded=0;whiteSpace=wrap;html=1;fillColor=#f8cecc;strokeColor=#b85450;" parent="FxF3UWBgYlLPX7A-So-d-7" vertex="1">
          <mxGeometry x="195" y="794" width="120" height="30" as="geometry" />
        </mxCell>
        <mxCell id="FxF3UWBgYlLPX7A-So-d-84" value="" style="rounded=0;whiteSpace=wrap;html=1;fillColor=#dae8fc;strokeColor=#6c8ebf;" parent="FxF3UWBgYlLPX7A-So-d-7" vertex="1">
          <mxGeometry x="195" y="914" width="120" height="30" as="geometry" />
        </mxCell>
        <mxCell id="FxF3UWBgYlLPX7A-So-d-85" value="" style="rounded=0;whiteSpace=wrap;html=1;fillColor=#d5e8d4;strokeColor=#82b366;" parent="FxF3UWBgYlLPX7A-So-d-7" vertex="1">
          <mxGeometry x="195" y="824" width="120" height="30" as="geometry" />
        </mxCell>
        <mxCell id="FxF3UWBgYlLPX7A-So-d-86" style="edgeStyle=orthogonalEdgeStyle;rounded=0;orthogonalLoop=1;jettySize=auto;html=1;exitX=0;exitY=0.75;exitDx=0;exitDy=0;entryX=1;entryY=0.383;entryDx=0;entryDy=0;entryPerimeter=0;" parent="FxF3UWBgYlLPX7A-So-d-7" edge="1">
          <mxGeometry x="-45" y="-623" as="geometry">
            <mxPoint x="405" y="884.0999999999999" as="sourcePoint" />
            <mxPoint x="315" y="883.5799999999999" as="targetPoint" />
            <Array as="points">
              <mxPoint x="315" y="884" />
            </Array>
          </mxGeometry>
        </mxCell>
        <mxCell id="FxF3UWBgYlLPX7A-So-d-87" value="좋아요 취소" style="edgeLabel;html=1;align=center;verticalAlign=middle;resizable=0;points=[];" parent="FxF3UWBgYlLPX7A-So-d-86" vertex="1" connectable="0">
          <mxGeometry x="-0.2486" y="1" relative="1" as="geometry">
            <mxPoint x="-7" as="offset" />
          </mxGeometry>
        </mxCell>
        <mxCell id="FxF3UWBgYlLPX7A-So-d-88" value="게시글 좋아요 처리&lt;br&gt;/board/vote.do" style="rounded=0;whiteSpace=wrap;html=1;fontColor=#FF3333;" parent="FxF3UWBgYlLPX7A-So-d-7" vertex="1">
          <mxGeometry x="405" y="832.5" width="120" height="60" as="geometry" />
        </mxCell>
        <mxCell id="FxF3UWBgYlLPX7A-So-d-89" value="" style="edgeStyle=orthogonalEdgeStyle;rounded=0;orthogonalLoop=1;jettySize=auto;html=1;strokeColor=#3333FF;" parent="FxF3UWBgYlLPX7A-So-d-7" edge="1">
          <mxGeometry x="-45" y="-623" as="geometry">
            <mxPoint x="315" y="867" as="sourcePoint" />
            <mxPoint x="405" y="867" as="targetPoint" />
            <Array as="points">
              <mxPoint x="375" y="867" />
              <mxPoint x="375" y="867" />
            </Array>
          </mxGeometry>
        </mxCell>
        <mxCell id="FxF3UWBgYlLPX7A-So-d-90" value="user_no" style="edgeLabel;html=1;align=left;verticalAlign=middle;resizable=0;points=[];" parent="FxF3UWBgYlLPX7A-So-d-89" vertex="1" connectable="0">
          <mxGeometry x="-0.1933" y="-1" relative="1" as="geometry">
            <mxPoint x="-30" y="-11" as="offset" />
          </mxGeometry>
        </mxCell>
        <mxCell id="FxF3UWBgYlLPX7A-So-d-91" value="" style="rounded=0;whiteSpace=wrap;html=1;fillColor=#f8cecc;strokeColor=#b85450;" parent="FxF3UWBgYlLPX7A-So-d-7" vertex="1">
          <mxGeometry x="602" y="794" width="120" height="30" as="geometry" />
        </mxCell>
        <mxCell id="FxF3UWBgYlLPX7A-So-d-92" style="edgeStyle=orthogonalEdgeStyle;rounded=0;orthogonalLoop=1;jettySize=auto;html=1;exitX=0;exitY=0.5;exitDx=0;exitDy=0;strokeColor=#0000FF;" parent="FxF3UWBgYlLPX7A-So-d-7" source="FxF3UWBgYlLPX7A-So-d-94" edge="1">
          <mxGeometry x="-45" y="-623" as="geometry">
            <mxPoint x="525" y="884" as="targetPoint" />
            <Array as="points">
              <mxPoint x="525" y="884" />
            </Array>
          </mxGeometry>
        </mxCell>
        <mxCell id="FxF3UWBgYlLPX7A-So-d-93" value="user_no" style="edgeLabel;html=1;align=center;verticalAlign=middle;resizable=0;points=[];" parent="FxF3UWBgYlLPX7A-So-d-92" vertex="1" connectable="0">
          <mxGeometry x="-0.3293" relative="1" as="geometry">
            <mxPoint x="-11" y="8.5" as="offset" />
          </mxGeometry>
        </mxCell>
        <mxCell id="FxF3UWBgYlLPX7A-So-d-94" value="게시글 상세페이지&lt;br&gt;/board/detail.jsp" style="rounded=0;whiteSpace=wrap;html=1;" parent="FxF3UWBgYlLPX7A-So-d-7" vertex="1">
          <mxGeometry x="602" y="854" width="120" height="60" as="geometry" />
        </mxCell>
        <mxCell id="FxF3UWBgYlLPX7A-So-d-95" style="edgeStyle=orthogonalEdgeStyle;rounded=0;orthogonalLoop=1;jettySize=auto;html=1;exitX=1;exitY=0.5;exitDx=0;exitDy=0;entryX=0;entryY=0.15;entryDx=0;entryDy=0;entryPerimeter=0;" parent="FxF3UWBgYlLPX7A-So-d-7" source="FxF3UWBgYlLPX7A-So-d-88" target="FxF3UWBgYlLPX7A-So-d-94" edge="1">
          <mxGeometry x="-45" y="-623" as="geometry">
            <Array as="points">
              <mxPoint x="565" y="863" />
              <mxPoint x="565" y="863" />
            </Array>
          </mxGeometry>
        </mxCell>
        <mxCell id="FxF3UWBgYlLPX7A-So-d-96" value="좋아요 성공" style="edgeLabel;html=1;align=center;verticalAlign=middle;resizable=0;points=[];" parent="FxF3UWBgYlLPX7A-So-d-95" vertex="1" connectable="0">
          <mxGeometry x="-0.205" y="-4" relative="1" as="geometry">
            <mxPoint x="3" y="-5" as="offset" />
          </mxGeometry>
        </mxCell>
        <mxCell id="FxF3UWBgYlLPX7A-So-d-97" value="" style="rounded=0;whiteSpace=wrap;html=1;fillColor=#dae8fc;strokeColor=#6c8ebf;" parent="FxF3UWBgYlLPX7A-So-d-7" vertex="1">
          <mxGeometry x="602" y="914" width="120" height="30" as="geometry" />
        </mxCell>
        <mxCell id="FxF3UWBgYlLPX7A-So-d-98" value="" style="rounded=0;whiteSpace=wrap;html=1;fillColor=#d5e8d4;strokeColor=#82b366;" parent="FxF3UWBgYlLPX7A-So-d-7" vertex="1">
          <mxGeometry x="602" y="824" width="120" height="30" as="geometry" />
        </mxCell>
        <mxCell id="FxF3UWBgYlLPX7A-So-d-99" value="게시글 상세페이지&lt;br&gt;/board/detail.jsp" style="rounded=0;whiteSpace=wrap;html=1;" parent="FxF3UWBgYlLPX7A-So-d-7" vertex="1">
          <mxGeometry x="195" y="854" width="120" height="60" as="geometry" />
        </mxCell>
        <mxCell id="FxF3UWBgYlLPX7A-So-d-100" value="user_no로 좋아요 수 카운트" style="text;html=1;strokeColor=none;fillColor=none;align=center;verticalAlign=middle;whiteSpace=wrap;rounded=0;fontStyle=0;fontColor=#0000FF;" parent="FxF3UWBgYlLPX7A-So-d-7" vertex="1">
          <mxGeometry x="370" y="787" width="190" height="28.5" as="geometry" />
        </mxCell>
        <mxCell id="FxF3UWBgYlLPX7A-So-d-101" value="" style="rounded=0;whiteSpace=wrap;html=1;fillColor=#f8cecc;strokeColor=#b85450;" parent="FxF3UWBgYlLPX7A-So-d-7" vertex="1">
          <mxGeometry x="35" y="793.5" width="120" height="30" as="geometry" />
        </mxCell>
        <mxCell id="FxF3UWBgYlLPX7A-So-d-102" value="카테고리 메인페이지&lt;br&gt;/board/main.jsp" style="rounded=0;whiteSpace=wrap;html=1;" parent="FxF3UWBgYlLPX7A-So-d-7" vertex="1">
          <mxGeometry x="35" y="853.5" width="120" height="60" as="geometry" />
        </mxCell>
        <mxCell id="FxF3UWBgYlLPX7A-So-d-103" style="edgeStyle=orthogonalEdgeStyle;rounded=0;orthogonalLoop=1;jettySize=auto;html=1;exitX=0.5;exitY=1;exitDx=0;exitDy=0;entryX=0.5;entryY=1;entryDx=0;entryDy=0;" parent="FxF3UWBgYlLPX7A-So-d-7" source="FxF3UWBgYlLPX7A-So-d-105" edge="1">
          <mxGeometry x="-45" y="-623" as="geometry">
            <mxPoint x="255" y="943.5" as="targetPoint" />
            <Array as="points">
              <mxPoint x="95" y="976.5" />
              <mxPoint x="255" y="976.5" />
            </Array>
          </mxGeometry>
        </mxCell>
        <mxCell id="FxF3UWBgYlLPX7A-So-d-104" value="상세페이지 클릭" style="edgeLabel;html=1;align=center;verticalAlign=middle;resizable=0;points=[];" parent="FxF3UWBgYlLPX7A-So-d-103" vertex="1" connectable="0">
          <mxGeometry x="0.2035" y="1" relative="1" as="geometry">
            <mxPoint x="-23" as="offset" />
          </mxGeometry>
        </mxCell>
        <mxCell id="FxF3UWBgYlLPX7A-So-d-105" value="" style="rounded=0;whiteSpace=wrap;html=1;fillColor=#dae8fc;strokeColor=#6c8ebf;" parent="FxF3UWBgYlLPX7A-So-d-7" vertex="1">
          <mxGeometry x="35" y="913.5" width="120" height="30" as="geometry" />
        </mxCell>
        <mxCell id="FxF3UWBgYlLPX7A-So-d-106" value="" style="rounded=0;whiteSpace=wrap;html=1;fillColor=#d5e8d4;strokeColor=#82b366;" parent="FxF3UWBgYlLPX7A-So-d-7" vertex="1">
          <mxGeometry x="35" y="823.5" width="120" height="30" as="geometry" />
        </mxCell>
        <mxCell id="FxF3UWBgYlLPX7A-So-d-107" value="" style="rounded=1;whiteSpace=wrap;html=1;strokeColor=#000000;fontColor=#000000;align=left;arcSize=5;" parent="FxF3UWBgYlLPX7A-So-d-7" vertex="1">
          <mxGeometry x="180" y="1028" width="550" height="189" as="geometry" />
        </mxCell>
        <mxCell id="FxF3UWBgYlLPX7A-So-d-108" value="7. 댓글 등록" style="shape=callout;whiteSpace=wrap;html=1;perimeter=calloutPerimeter;align=center;fillColor=#f5f5f5;strokeColor=#666666;fontColor=#333333;position2=0.5;size=10;position=0.5;" parent="FxF3UWBgYlLPX7A-So-d-7" vertex="1">
          <mxGeometry x="195" y="1007" width="120" height="40" as="geometry" />
        </mxCell>
        <mxCell id="FxF3UWBgYlLPX7A-So-d-109" value="" style="rounded=0;whiteSpace=wrap;html=1;fillColor=#f8cecc;strokeColor=#b85450;" parent="FxF3UWBgYlLPX7A-So-d-7" vertex="1">
          <mxGeometry x="195" y="1054" width="120" height="30" as="geometry" />
        </mxCell>
        <mxCell id="FxF3UWBgYlLPX7A-So-d-110" value="" style="rounded=0;whiteSpace=wrap;html=1;fillColor=#dae8fc;strokeColor=#6c8ebf;" parent="FxF3UWBgYlLPX7A-So-d-7" vertex="1">
          <mxGeometry x="195" y="1174" width="120" height="30" as="geometry" />
        </mxCell>
        <mxCell id="FxF3UWBgYlLPX7A-So-d-111" value="" style="rounded=0;whiteSpace=wrap;html=1;fillColor=#d5e8d4;strokeColor=#82b366;" parent="FxF3UWBgYlLPX7A-So-d-7" vertex="1">
          <mxGeometry x="195" y="1084" width="120" height="30" as="geometry" />
        </mxCell>
        <mxCell id="FxF3UWBgYlLPX7A-So-d-112" value="게시글 댓글 처리&lt;br&gt;/board/opinion.do" style="rounded=0;whiteSpace=wrap;html=1;fontColor=#FF3333;" parent="FxF3UWBgYlLPX7A-So-d-7" vertex="1">
          <mxGeometry x="405" y="1092.5" width="120" height="60" as="geometry" />
        </mxCell>
        <mxCell id="FxF3UWBgYlLPX7A-So-d-113" value="" style="edgeStyle=orthogonalEdgeStyle;rounded=0;orthogonalLoop=1;jettySize=auto;html=1;strokeColor=#3333FF;" parent="FxF3UWBgYlLPX7A-So-d-7" edge="1">
          <mxGeometry x="-45" y="-623" as="geometry">
            <mxPoint x="315" y="1127" as="sourcePoint" />
            <mxPoint x="405" y="1127" as="targetPoint" />
            <Array as="points">
              <mxPoint x="375" y="1127" />
              <mxPoint x="375" y="1127" />
            </Array>
          </mxGeometry>
        </mxCell>
        <mxCell id="FxF3UWBgYlLPX7A-So-d-114" value="user_nick&lt;br&gt;opinion_text" style="edgeLabel;html=1;align=left;verticalAlign=middle;resizable=0;points=[];" parent="FxF3UWBgYlLPX7A-So-d-113" vertex="1" connectable="0">
          <mxGeometry x="-0.1933" y="-1" relative="1" as="geometry">
            <mxPoint x="-30" y="-20" as="offset" />
          </mxGeometry>
        </mxCell>
        <mxCell id="FxF3UWBgYlLPX7A-So-d-115" value="" style="rounded=0;whiteSpace=wrap;html=1;fillColor=#f8cecc;strokeColor=#b85450;" parent="FxF3UWBgYlLPX7A-So-d-7" vertex="1">
          <mxGeometry x="602" y="1054" width="120" height="30" as="geometry" />
        </mxCell>
        <mxCell id="FxF3UWBgYlLPX7A-So-d-116" value="게시글 상세페이지&lt;br&gt;/board/detail.jsp" style="rounded=0;whiteSpace=wrap;html=1;" parent="FxF3UWBgYlLPX7A-So-d-7" vertex="1">
          <mxGeometry x="602" y="1114" width="120" height="60" as="geometry" />
        </mxCell>
        <mxCell id="FxF3UWBgYlLPX7A-So-d-117" style="edgeStyle=orthogonalEdgeStyle;rounded=0;orthogonalLoop=1;jettySize=auto;html=1;exitX=1;exitY=0.5;exitDx=0;exitDy=0;entryX=0;entryY=0.15;entryDx=0;entryDy=0;entryPerimeter=0;" parent="FxF3UWBgYlLPX7A-So-d-7" source="FxF3UWBgYlLPX7A-So-d-112" target="FxF3UWBgYlLPX7A-So-d-116" edge="1">
          <mxGeometry x="-45" y="-623" as="geometry">
            <Array as="points">
              <mxPoint x="565" y="1123" />
              <mxPoint x="565" y="1123" />
            </Array>
          </mxGeometry>
        </mxCell>
        <mxCell id="FxF3UWBgYlLPX7A-So-d-118" value="성공" style="edgeLabel;html=1;align=center;verticalAlign=middle;resizable=0;points=[];" parent="FxF3UWBgYlLPX7A-So-d-117" vertex="1" connectable="0">
          <mxGeometry x="-0.205" y="-4" relative="1" as="geometry">
            <mxPoint x="3" y="-5" as="offset" />
          </mxGeometry>
        </mxCell>
        <mxCell id="FxF3UWBgYlLPX7A-So-d-119" value="" style="rounded=0;whiteSpace=wrap;html=1;fillColor=#dae8fc;strokeColor=#6c8ebf;" parent="FxF3UWBgYlLPX7A-So-d-7" vertex="1">
          <mxGeometry x="602" y="1174" width="120" height="30" as="geometry" />
        </mxCell>
        <mxCell id="FxF3UWBgYlLPX7A-So-d-120" value="" style="rounded=0;whiteSpace=wrap;html=1;fillColor=#d5e8d4;strokeColor=#82b366;" parent="FxF3UWBgYlLPX7A-So-d-7" vertex="1">
          <mxGeometry x="602" y="1084" width="120" height="30" as="geometry" />
        </mxCell>
        <mxCell id="FxF3UWBgYlLPX7A-So-d-121" value="게시글 상세페이지&lt;br&gt;/board/detail.jsp" style="rounded=0;whiteSpace=wrap;html=1;" parent="FxF3UWBgYlLPX7A-So-d-7" vertex="1">
          <mxGeometry x="195" y="1114" width="120" height="60" as="geometry" />
        </mxCell>
        <mxCell id="FxF3UWBgYlLPX7A-So-d-122" value="" style="rounded=0;whiteSpace=wrap;html=1;fillColor=#f8cecc;strokeColor=#b85450;" parent="FxF3UWBgYlLPX7A-So-d-7" vertex="1">
          <mxGeometry x="35" y="1053.5" width="120" height="30" as="geometry" />
        </mxCell>
        <mxCell id="FxF3UWBgYlLPX7A-So-d-123" value="카테고리 메인페이지&lt;br&gt;/board/main.jsp" style="rounded=0;whiteSpace=wrap;html=1;" parent="FxF3UWBgYlLPX7A-So-d-7" vertex="1">
          <mxGeometry x="35" y="1113.5" width="120" height="60" as="geometry" />
        </mxCell>
        <mxCell id="FxF3UWBgYlLPX7A-So-d-124" style="edgeStyle=orthogonalEdgeStyle;rounded=0;orthogonalLoop=1;jettySize=auto;html=1;exitX=0.5;exitY=1;exitDx=0;exitDy=0;entryX=0.5;entryY=1;entryDx=0;entryDy=0;" parent="FxF3UWBgYlLPX7A-So-d-7" source="FxF3UWBgYlLPX7A-So-d-126" edge="1">
          <mxGeometry x="-45" y="-623" as="geometry">
            <mxPoint x="255" y="1203.5" as="targetPoint" />
            <Array as="points">
              <mxPoint x="95" y="1236.5" />
              <mxPoint x="255" y="1236.5" />
            </Array>
          </mxGeometry>
        </mxCell>
        <mxCell id="FxF3UWBgYlLPX7A-So-d-125" value="상세페이지 클릭" style="edgeLabel;html=1;align=center;verticalAlign=middle;resizable=0;points=[];" parent="FxF3UWBgYlLPX7A-So-d-124" vertex="1" connectable="0">
          <mxGeometry x="0.2035" y="1" relative="1" as="geometry">
            <mxPoint x="-23" as="offset" />
          </mxGeometry>
        </mxCell>
        <mxCell id="FxF3UWBgYlLPX7A-So-d-126" value="" style="rounded=0;whiteSpace=wrap;html=1;fillColor=#dae8fc;strokeColor=#6c8ebf;" parent="FxF3UWBgYlLPX7A-So-d-7" vertex="1">
          <mxGeometry x="35" y="1173.5" width="120" height="30" as="geometry" />
        </mxCell>
        <mxCell id="FxF3UWBgYlLPX7A-So-d-127" value="" style="rounded=0;whiteSpace=wrap;html=1;fillColor=#d5e8d4;strokeColor=#82b366;" parent="FxF3UWBgYlLPX7A-So-d-7" vertex="1">
          <mxGeometry x="35" y="1083.5" width="120" height="30" as="geometry" />
        </mxCell>
        <mxCell id="FxF3UWBgYlLPX7A-So-d-128" value="카테고리별로 폴더이름&lt;br&gt;tip_board/main.jsp&lt;br&gt;q&amp;amp;a_board/main.jsp" style="text;html=1;strokeColor=none;fillColor=none;align=center;verticalAlign=middle;whiteSpace=wrap;rounded=0;fontStyle=0;fontColor=#0000FF;" parent="FxF3UWBgYlLPX7A-So-d-7" vertex="1">
          <mxGeometry y="502.75" width="190" height="28.5" as="geometry" />
        </mxCell>
        <mxCell id="FxF3UWBgYlLPX7A-So-d-129" value="Tip_Board" style="shape=callout;whiteSpace=wrap;html=1;perimeter=calloutPerimeter;align=center;fillColor=#f5f5f5;strokeColor=#666666;fontColor=#333333;position2=0.5;size=10;position=0.5;" parent="FxF3UWBgYlLPX7A-So-d-7" vertex="1">
          <mxGeometry x="25" y="-40" width="140" height="40" as="geometry" />
        </mxCell>
        <mxCell id="FxF3UWBgYlLPX7A-So-d-130" value="" style="group" parent="1" vertex="1" connectable="0">
          <mxGeometry x="320" y="550" width="905" height="1730" as="geometry" />
        </mxCell>
        <mxCell id="FxF3UWBgYlLPX7A-So-d-131" value="" style="rounded=1;whiteSpace=wrap;html=1;arcSize=3;" parent="FxF3UWBgYlLPX7A-So-d-130" vertex="1">
          <mxGeometry x="-45" y="-30" width="821" height="1625" as="geometry" />
        </mxCell>
        <mxCell id="FxF3UWBgYlLPX7A-So-d-132" value="" style="rounded=1;whiteSpace=wrap;html=1;strokeColor=#000000;fontColor=#000000;align=left;arcSize=5;" parent="FxF3UWBgYlLPX7A-So-d-130" vertex="1">
          <mxGeometry x="180" y="21" width="550" height="189" as="geometry" />
        </mxCell>
        <mxCell id="FxF3UWBgYlLPX7A-So-d-133" value="3. 게시글 등록" style="shape=callout;whiteSpace=wrap;html=1;perimeter=calloutPerimeter;align=center;fillColor=#f5f5f5;strokeColor=#666666;fontColor=#333333;position2=0.5;size=10;position=0.5;" parent="FxF3UWBgYlLPX7A-So-d-130" vertex="1">
          <mxGeometry x="195" width="140" height="40" as="geometry" />
        </mxCell>
        <mxCell id="FxF3UWBgYlLPX7A-So-d-134" value="" style="rounded=0;whiteSpace=wrap;html=1;fillColor=#f8cecc;strokeColor=#b85450;" parent="FxF3UWBgYlLPX7A-So-d-130" vertex="1">
          <mxGeometry x="195" y="47" width="120" height="30" as="geometry" />
        </mxCell>
        <mxCell id="FxF3UWBgYlLPX7A-So-d-135" value="게시글입력&lt;br&gt;/qna_board/write.jsp" style="rounded=0;whiteSpace=wrap;html=1;" parent="FxF3UWBgYlLPX7A-So-d-130" vertex="1">
          <mxGeometry x="195" y="107" width="120" height="60" as="geometry" />
        </mxCell>
        <mxCell id="FxF3UWBgYlLPX7A-So-d-136" value="" style="rounded=0;whiteSpace=wrap;html=1;fillColor=#dae8fc;strokeColor=#6c8ebf;" parent="FxF3UWBgYlLPX7A-So-d-130" vertex="1">
          <mxGeometry x="195" y="167" width="120" height="30" as="geometry" />
        </mxCell>
        <mxCell id="FxF3UWBgYlLPX7A-So-d-137" value="" style="rounded=0;whiteSpace=wrap;html=1;fillColor=#d5e8d4;strokeColor=#82b366;" parent="FxF3UWBgYlLPX7A-So-d-130" vertex="1">
          <mxGeometry x="195" y="77" width="120" height="30" as="geometry" />
        </mxCell>
        <mxCell id="FxF3UWBgYlLPX7A-So-d-138" value="게시글 등록 처리&lt;br&gt;/board/write.do" style="rounded=0;whiteSpace=wrap;html=1;fontColor=#FF3333;" parent="FxF3UWBgYlLPX7A-So-d-130" vertex="1">
          <mxGeometry x="405" y="85.5" width="120" height="60" as="geometry" />
        </mxCell>
        <mxCell id="FxF3UWBgYlLPX7A-So-d-139" value="" style="edgeStyle=orthogonalEdgeStyle;rounded=0;orthogonalLoop=1;jettySize=auto;html=1;strokeColor=#3333FF;" parent="FxF3UWBgYlLPX7A-So-d-130" edge="1">
          <mxGeometry x="-45" y="-623" as="geometry">
            <mxPoint x="315" y="120" as="sourcePoint" />
            <mxPoint x="405" y="120" as="targetPoint" />
            <Array as="points">
              <mxPoint x="375" y="120" />
              <mxPoint x="375" y="120" />
            </Array>
          </mxGeometry>
        </mxCell>
        <mxCell id="FxF3UWBgYlLPX7A-So-d-140" value="member_no&lt;br&gt;board_title&lt;br&gt;board_text" style="edgeLabel;html=1;align=left;verticalAlign=middle;resizable=0;points=[];" parent="FxF3UWBgYlLPX7A-So-d-139" vertex="1" connectable="0">
          <mxGeometry x="-0.1933" y="-1" relative="1" as="geometry">
            <mxPoint x="-30" y="-27" as="offset" />
          </mxGeometry>
        </mxCell>
        <mxCell id="FxF3UWBgYlLPX7A-So-d-141" value="" style="rounded=0;whiteSpace=wrap;html=1;fillColor=#f8cecc;strokeColor=#b85450;" parent="FxF3UWBgYlLPX7A-So-d-130" vertex="1">
          <mxGeometry x="602" y="47" width="120" height="30" as="geometry" />
        </mxCell>
        <mxCell id="FxF3UWBgYlLPX7A-So-d-142" value="여행 Q&amp;amp;A상세페이지&lt;br&gt;/qna_board/detail.jsp" style="rounded=0;whiteSpace=wrap;html=1;" parent="FxF3UWBgYlLPX7A-So-d-130" vertex="1">
          <mxGeometry x="602" y="107" width="120" height="60" as="geometry" />
        </mxCell>
        <mxCell id="FxF3UWBgYlLPX7A-So-d-143" style="edgeStyle=orthogonalEdgeStyle;rounded=0;orthogonalLoop=1;jettySize=auto;html=1;exitX=1;exitY=0.5;exitDx=0;exitDy=0;entryX=0;entryY=0.15;entryDx=0;entryDy=0;entryPerimeter=0;" parent="FxF3UWBgYlLPX7A-So-d-130" source="FxF3UWBgYlLPX7A-So-d-138" target="FxF3UWBgYlLPX7A-So-d-142" edge="1">
          <mxGeometry x="-45" y="-623" as="geometry">
            <Array as="points">
              <mxPoint x="565" y="116" />
              <mxPoint x="565" y="116" />
            </Array>
          </mxGeometry>
        </mxCell>
        <mxCell id="FxF3UWBgYlLPX7A-So-d-144" value="등록성공" style="edgeLabel;html=1;align=center;verticalAlign=middle;resizable=0;points=[];" parent="FxF3UWBgYlLPX7A-So-d-143" vertex="1" connectable="0">
          <mxGeometry x="-0.205" y="-4" relative="1" as="geometry">
            <mxPoint as="offset" />
          </mxGeometry>
        </mxCell>
        <mxCell id="FxF3UWBgYlLPX7A-So-d-145" value="" style="rounded=0;whiteSpace=wrap;html=1;fillColor=#dae8fc;strokeColor=#6c8ebf;" parent="FxF3UWBgYlLPX7A-So-d-130" vertex="1">
          <mxGeometry x="602" y="167" width="120" height="30" as="geometry" />
        </mxCell>
        <mxCell id="FxF3UWBgYlLPX7A-So-d-146" value="" style="rounded=0;whiteSpace=wrap;html=1;fillColor=#d5e8d4;strokeColor=#82b366;" parent="FxF3UWBgYlLPX7A-So-d-130" vertex="1">
          <mxGeometry x="602" y="77" width="120" height="30" as="geometry" />
        </mxCell>
        <mxCell id="FxF3UWBgYlLPX7A-So-d-147" value="" style="rounded=0;whiteSpace=wrap;html=1;fillColor=#f8cecc;strokeColor=#b85450;" parent="FxF3UWBgYlLPX7A-So-d-130" vertex="1">
          <mxGeometry x="35" y="47" width="120" height="30" as="geometry" />
        </mxCell>
        <mxCell id="FxF3UWBgYlLPX7A-So-d-148" value="여행 Q&amp;amp;A메인페이지&lt;br&gt;/qna_board/main.jsp" style="rounded=0;whiteSpace=wrap;html=1;" parent="FxF3UWBgYlLPX7A-So-d-130" vertex="1">
          <mxGeometry x="35" y="107" width="120" height="60" as="geometry" />
        </mxCell>
        <mxCell id="FxF3UWBgYlLPX7A-So-d-149" style="edgeStyle=orthogonalEdgeStyle;rounded=0;orthogonalLoop=1;jettySize=auto;html=1;exitX=0.5;exitY=1;exitDx=0;exitDy=0;entryX=0.5;entryY=1;entryDx=0;entryDy=0;" parent="FxF3UWBgYlLPX7A-So-d-130" source="FxF3UWBgYlLPX7A-So-d-151" target="FxF3UWBgYlLPX7A-So-d-136" edge="1">
          <mxGeometry x="-45" y="-623" as="geometry">
            <Array as="points">
              <mxPoint x="95" y="227" />
              <mxPoint x="255" y="227" />
            </Array>
          </mxGeometry>
        </mxCell>
        <mxCell id="FxF3UWBgYlLPX7A-So-d-150" value="게시글 등록하기 버튼 클릭" style="edgeLabel;html=1;align=center;verticalAlign=middle;resizable=0;points=[];" parent="FxF3UWBgYlLPX7A-So-d-149" vertex="1" connectable="0">
          <mxGeometry x="-0.27" y="-1" relative="1" as="geometry">
            <mxPoint x="32" as="offset" />
          </mxGeometry>
        </mxCell>
        <mxCell id="FxF3UWBgYlLPX7A-So-d-151" value="" style="rounded=0;whiteSpace=wrap;html=1;fillColor=#dae8fc;strokeColor=#6c8ebf;" parent="FxF3UWBgYlLPX7A-So-d-130" vertex="1">
          <mxGeometry x="35" y="167" width="120" height="30" as="geometry" />
        </mxCell>
        <mxCell id="FxF3UWBgYlLPX7A-So-d-152" value="" style="rounded=0;whiteSpace=wrap;html=1;fillColor=#d5e8d4;strokeColor=#82b366;" parent="FxF3UWBgYlLPX7A-So-d-130" vertex="1">
          <mxGeometry x="35" y="77" width="120" height="30" as="geometry" />
        </mxCell>
        <mxCell id="FxF3UWBgYlLPX7A-So-d-153" value="" style="rounded=1;whiteSpace=wrap;html=1;strokeColor=#000000;fontColor=#000000;align=left;arcSize=5;" parent="FxF3UWBgYlLPX7A-So-d-130" vertex="1">
          <mxGeometry x="180" y="268" width="550" height="189" as="geometry" />
        </mxCell>
        <mxCell id="FxF3UWBgYlLPX7A-So-d-154" value="4. 게시글 수정" style="shape=callout;whiteSpace=wrap;html=1;perimeter=calloutPerimeter;align=center;fillColor=#f5f5f5;strokeColor=#666666;fontColor=#333333;position2=0.5;size=10;position=0.5;" parent="FxF3UWBgYlLPX7A-So-d-130" vertex="1">
          <mxGeometry x="195" y="247" width="140" height="40" as="geometry" />
        </mxCell>
        <mxCell id="FxF3UWBgYlLPX7A-So-d-155" value="" style="rounded=0;whiteSpace=wrap;html=1;fillColor=#f8cecc;strokeColor=#b85450;" parent="FxF3UWBgYlLPX7A-So-d-130" vertex="1">
          <mxGeometry x="195" y="294" width="120" height="30" as="geometry" />
        </mxCell>
        <mxCell id="FxF3UWBgYlLPX7A-So-d-156" value="" style="rounded=0;whiteSpace=wrap;html=1;fillColor=#dae8fc;strokeColor=#6c8ebf;" parent="FxF3UWBgYlLPX7A-So-d-130" vertex="1">
          <mxGeometry x="195" y="414" width="120" height="30" as="geometry" />
        </mxCell>
        <mxCell id="FxF3UWBgYlLPX7A-So-d-157" value="" style="rounded=0;whiteSpace=wrap;html=1;fillColor=#d5e8d4;strokeColor=#82b366;" parent="FxF3UWBgYlLPX7A-So-d-130" vertex="1">
          <mxGeometry x="195" y="324" width="120" height="30" as="geometry" />
        </mxCell>
        <mxCell id="FxF3UWBgYlLPX7A-So-d-158" value="게시글 수정 처리&lt;br&gt;/board/edit.do" style="rounded=0;whiteSpace=wrap;html=1;fontColor=#FF3333;" parent="FxF3UWBgYlLPX7A-So-d-130" vertex="1">
          <mxGeometry x="405" y="332.5" width="120" height="60" as="geometry" />
        </mxCell>
        <mxCell id="FxF3UWBgYlLPX7A-So-d-159" value="" style="edgeStyle=orthogonalEdgeStyle;rounded=0;orthogonalLoop=1;jettySize=auto;html=1;strokeColor=#3333FF;" parent="FxF3UWBgYlLPX7A-So-d-130" edge="1">
          <mxGeometry x="-45" y="-623" as="geometry">
            <mxPoint x="315" y="367" as="sourcePoint" />
            <mxPoint x="405" y="367" as="targetPoint" />
            <Array as="points">
              <mxPoint x="375" y="367" />
              <mxPoint x="375" y="367" />
            </Array>
          </mxGeometry>
        </mxCell>
        <mxCell id="FxF3UWBgYlLPX7A-So-d-160" value="board_no" style="edgeLabel;html=1;align=left;verticalAlign=middle;resizable=0;points=[];" parent="FxF3UWBgYlLPX7A-So-d-159" vertex="1" connectable="0">
          <mxGeometry x="-0.1933" y="-1" relative="1" as="geometry">
            <mxPoint x="-30" y="-15" as="offset" />
          </mxGeometry>
        </mxCell>
        <mxCell id="FxF3UWBgYlLPX7A-So-d-161" value="" style="rounded=0;whiteSpace=wrap;html=1;fillColor=#f8cecc;strokeColor=#b85450;" parent="FxF3UWBgYlLPX7A-So-d-130" vertex="1">
          <mxGeometry x="602" y="294" width="120" height="30" as="geometry" />
        </mxCell>
        <mxCell id="FxF3UWBgYlLPX7A-So-d-162" value="여행 Q&amp;amp;A상세페이지&lt;br&gt;/qna_board/detail.jsp" style="rounded=0;whiteSpace=wrap;html=1;" parent="FxF3UWBgYlLPX7A-So-d-130" vertex="1">
          <mxGeometry x="602" y="354" width="120" height="60" as="geometry" />
        </mxCell>
        <mxCell id="FxF3UWBgYlLPX7A-So-d-163" style="edgeStyle=orthogonalEdgeStyle;rounded=0;orthogonalLoop=1;jettySize=auto;html=1;exitX=1;exitY=0.5;exitDx=0;exitDy=0;entryX=0;entryY=0.15;entryDx=0;entryDy=0;entryPerimeter=0;" parent="FxF3UWBgYlLPX7A-So-d-130" source="FxF3UWBgYlLPX7A-So-d-158" target="FxF3UWBgYlLPX7A-So-d-162" edge="1">
          <mxGeometry x="-45" y="-623" as="geometry">
            <Array as="points">
              <mxPoint x="565" y="363" />
              <mxPoint x="565" y="363" />
            </Array>
          </mxGeometry>
        </mxCell>
        <mxCell id="FxF3UWBgYlLPX7A-So-d-164" value="수정" style="edgeLabel;html=1;align=center;verticalAlign=middle;resizable=0;points=[];" parent="FxF3UWBgYlLPX7A-So-d-163" vertex="1" connectable="0">
          <mxGeometry x="-0.205" y="-4" relative="1" as="geometry">
            <mxPoint as="offset" />
          </mxGeometry>
        </mxCell>
        <mxCell id="FxF3UWBgYlLPX7A-So-d-165" value="" style="rounded=0;whiteSpace=wrap;html=1;fillColor=#dae8fc;strokeColor=#6c8ebf;" parent="FxF3UWBgYlLPX7A-So-d-130" vertex="1">
          <mxGeometry x="602" y="414" width="120" height="30" as="geometry" />
        </mxCell>
        <mxCell id="FxF3UWBgYlLPX7A-So-d-166" value="" style="rounded=0;whiteSpace=wrap;html=1;fillColor=#d5e8d4;strokeColor=#82b366;" parent="FxF3UWBgYlLPX7A-So-d-130" vertex="1">
          <mxGeometry x="602" y="324" width="120" height="30" as="geometry" />
        </mxCell>
        <mxCell id="FxF3UWBgYlLPX7A-So-d-167" value="" style="rounded=0;whiteSpace=wrap;html=1;fillColor=#f8cecc;strokeColor=#b85450;" parent="FxF3UWBgYlLPX7A-So-d-130" vertex="1">
          <mxGeometry x="35" y="294" width="120" height="30" as="geometry" />
        </mxCell>
        <mxCell id="FxF3UWBgYlLPX7A-So-d-168" value="여행 Q&amp;amp;A메인페이지&lt;br&gt;/qna_board/main.jsp" style="rounded=0;whiteSpace=wrap;html=1;" parent="FxF3UWBgYlLPX7A-So-d-130" vertex="1">
          <mxGeometry x="35" y="354" width="120" height="60" as="geometry" />
        </mxCell>
        <mxCell id="FxF3UWBgYlLPX7A-So-d-169" value="" style="rounded=0;whiteSpace=wrap;html=1;fillColor=#dae8fc;strokeColor=#6c8ebf;" parent="FxF3UWBgYlLPX7A-So-d-130" vertex="1">
          <mxGeometry x="35" y="414" width="120" height="30" as="geometry" />
        </mxCell>
        <mxCell id="FxF3UWBgYlLPX7A-So-d-170" value="" style="rounded=0;whiteSpace=wrap;html=1;fillColor=#d5e8d4;strokeColor=#82b366;" parent="FxF3UWBgYlLPX7A-So-d-130" vertex="1">
          <mxGeometry x="35" y="324" width="120" height="30" as="geometry" />
        </mxCell>
        <mxCell id="FxF3UWBgYlLPX7A-So-d-171" value="게시글 수정페이지&lt;br&gt;/qna_board/edit.jsp" style="rounded=0;whiteSpace=wrap;html=1;" parent="FxF3UWBgYlLPX7A-So-d-130" vertex="1">
          <mxGeometry x="195" y="354" width="120" height="60" as="geometry" />
        </mxCell>
        <mxCell id="FxF3UWBgYlLPX7A-So-d-172" value="" style="rounded=1;whiteSpace=wrap;html=1;strokeColor=#000000;fontColor=#000000;align=left;arcSize=5;" parent="FxF3UWBgYlLPX7A-So-d-130" vertex="1">
          <mxGeometry x="180" y="518" width="550" height="189" as="geometry" />
        </mxCell>
        <mxCell id="FxF3UWBgYlLPX7A-So-d-173" value="5. 게시글 삭제" style="shape=callout;whiteSpace=wrap;html=1;perimeter=calloutPerimeter;align=center;fillColor=#f5f5f5;strokeColor=#666666;fontColor=#333333;position2=0.5;size=10;position=0.5;" parent="FxF3UWBgYlLPX7A-So-d-130" vertex="1">
          <mxGeometry x="195" y="497" width="140" height="40" as="geometry" />
        </mxCell>
        <mxCell id="FxF3UWBgYlLPX7A-So-d-174" value="" style="rounded=0;whiteSpace=wrap;html=1;fillColor=#f8cecc;strokeColor=#b85450;" parent="FxF3UWBgYlLPX7A-So-d-130" vertex="1">
          <mxGeometry x="195" y="544" width="120" height="30" as="geometry" />
        </mxCell>
        <mxCell id="FxF3UWBgYlLPX7A-So-d-175" value="" style="rounded=0;whiteSpace=wrap;html=1;fillColor=#dae8fc;strokeColor=#6c8ebf;" parent="FxF3UWBgYlLPX7A-So-d-130" vertex="1">
          <mxGeometry x="195" y="664" width="120" height="30" as="geometry" />
        </mxCell>
        <mxCell id="FxF3UWBgYlLPX7A-So-d-176" value="" style="rounded=0;whiteSpace=wrap;html=1;fillColor=#d5e8d4;strokeColor=#82b366;" parent="FxF3UWBgYlLPX7A-So-d-130" vertex="1">
          <mxGeometry x="195" y="574" width="120" height="30" as="geometry" />
        </mxCell>
        <mxCell id="FxF3UWBgYlLPX7A-So-d-177" value="게시글 삭제 처리&lt;br&gt;/board/delete.do" style="rounded=0;whiteSpace=wrap;html=1;fontColor=#FF3333;" parent="FxF3UWBgYlLPX7A-So-d-130" vertex="1">
          <mxGeometry x="405" y="582.5" width="120" height="60" as="geometry" />
        </mxCell>
        <mxCell id="FxF3UWBgYlLPX7A-So-d-178" value="" style="edgeStyle=orthogonalEdgeStyle;rounded=0;orthogonalLoop=1;jettySize=auto;html=1;strokeColor=#3333FF;" parent="FxF3UWBgYlLPX7A-So-d-130" edge="1">
          <mxGeometry x="-45" y="-623" as="geometry">
            <mxPoint x="315" y="617" as="sourcePoint" />
            <mxPoint x="405" y="617" as="targetPoint" />
            <Array as="points">
              <mxPoint x="375" y="617" />
              <mxPoint x="375" y="617" />
            </Array>
          </mxGeometry>
        </mxCell>
        <mxCell id="FxF3UWBgYlLPX7A-So-d-179" value="board_no" style="edgeLabel;html=1;align=left;verticalAlign=middle;resizable=0;points=[];" parent="FxF3UWBgYlLPX7A-So-d-178" vertex="1" connectable="0">
          <mxGeometry x="-0.1933" y="-1" relative="1" as="geometry">
            <mxPoint x="-30" y="-15" as="offset" />
          </mxGeometry>
        </mxCell>
        <mxCell id="FxF3UWBgYlLPX7A-So-d-180" value="" style="rounded=0;whiteSpace=wrap;html=1;fillColor=#f8cecc;strokeColor=#b85450;" parent="FxF3UWBgYlLPX7A-So-d-130" vertex="1">
          <mxGeometry x="602" y="544" width="120" height="30" as="geometry" />
        </mxCell>
        <mxCell id="FxF3UWBgYlLPX7A-So-d-181" value="여행 Q&amp;amp;A메인페이지&lt;br&gt;/qna_board/main.jsp" style="rounded=0;whiteSpace=wrap;html=1;" parent="FxF3UWBgYlLPX7A-So-d-130" vertex="1">
          <mxGeometry x="602" y="604" width="120" height="60" as="geometry" />
        </mxCell>
        <mxCell id="FxF3UWBgYlLPX7A-So-d-182" style="edgeStyle=orthogonalEdgeStyle;rounded=0;orthogonalLoop=1;jettySize=auto;html=1;exitX=1;exitY=0.5;exitDx=0;exitDy=0;entryX=0;entryY=0.15;entryDx=0;entryDy=0;entryPerimeter=0;" parent="FxF3UWBgYlLPX7A-So-d-130" source="FxF3UWBgYlLPX7A-So-d-177" target="FxF3UWBgYlLPX7A-So-d-181" edge="1">
          <mxGeometry x="-45" y="-623" as="geometry">
            <Array as="points">
              <mxPoint x="565" y="613" />
              <mxPoint x="565" y="613" />
            </Array>
          </mxGeometry>
        </mxCell>
        <mxCell id="FxF3UWBgYlLPX7A-So-d-183" value="삭제" style="edgeLabel;html=1;align=center;verticalAlign=middle;resizable=0;points=[];" parent="FxF3UWBgYlLPX7A-So-d-182" vertex="1" connectable="0">
          <mxGeometry x="-0.205" y="-4" relative="1" as="geometry">
            <mxPoint as="offset" />
          </mxGeometry>
        </mxCell>
        <mxCell id="FxF3UWBgYlLPX7A-So-d-184" value="" style="rounded=0;whiteSpace=wrap;html=1;fillColor=#dae8fc;strokeColor=#6c8ebf;" parent="FxF3UWBgYlLPX7A-So-d-130" vertex="1">
          <mxGeometry x="602" y="664" width="120" height="30" as="geometry" />
        </mxCell>
        <mxCell id="FxF3UWBgYlLPX7A-So-d-185" value="" style="rounded=0;whiteSpace=wrap;html=1;fillColor=#d5e8d4;strokeColor=#82b366;" parent="FxF3UWBgYlLPX7A-So-d-130" vertex="1">
          <mxGeometry x="602" y="574" width="120" height="30" as="geometry" />
        </mxCell>
        <mxCell id="FxF3UWBgYlLPX7A-So-d-186" value="" style="rounded=0;whiteSpace=wrap;html=1;fillColor=#f8cecc;strokeColor=#b85450;" parent="FxF3UWBgYlLPX7A-So-d-130" vertex="1">
          <mxGeometry x="35" y="544" width="120" height="30" as="geometry" />
        </mxCell>
        <mxCell id="FxF3UWBgYlLPX7A-So-d-187" value="여행 Q&amp;amp;A메인페이지&lt;br&gt;/qna_board/main.jsp" style="rounded=0;whiteSpace=wrap;html=1;" parent="FxF3UWBgYlLPX7A-So-d-130" vertex="1">
          <mxGeometry x="35" y="604" width="120" height="60" as="geometry" />
        </mxCell>
        <mxCell id="FxF3UWBgYlLPX7A-So-d-188" style="edgeStyle=orthogonalEdgeStyle;rounded=0;orthogonalLoop=1;jettySize=auto;html=1;exitX=0.5;exitY=1;exitDx=0;exitDy=0;entryX=0.5;entryY=1;entryDx=0;entryDy=0;" parent="FxF3UWBgYlLPX7A-So-d-130" source="FxF3UWBgYlLPX7A-So-d-190" target="FxF3UWBgYlLPX7A-So-d-175" edge="1">
          <mxGeometry x="-45" y="-623" as="geometry">
            <Array as="points">
              <mxPoint x="95" y="727" />
              <mxPoint x="255" y="727" />
            </Array>
          </mxGeometry>
        </mxCell>
        <mxCell id="FxF3UWBgYlLPX7A-So-d-189" value="게시글 클릭" style="edgeLabel;html=1;align=center;verticalAlign=middle;resizable=0;points=[];" parent="FxF3UWBgYlLPX7A-So-d-188" vertex="1" connectable="0">
          <mxGeometry x="0.2035" y="1" relative="1" as="geometry">
            <mxPoint x="-23" as="offset" />
          </mxGeometry>
        </mxCell>
        <mxCell id="FxF3UWBgYlLPX7A-So-d-190" value="" style="rounded=0;whiteSpace=wrap;html=1;fillColor=#dae8fc;strokeColor=#6c8ebf;" parent="FxF3UWBgYlLPX7A-So-d-130" vertex="1">
          <mxGeometry x="35" y="664" width="120" height="30" as="geometry" />
        </mxCell>
        <mxCell id="FxF3UWBgYlLPX7A-So-d-191" value="" style="rounded=0;whiteSpace=wrap;html=1;fillColor=#d5e8d4;strokeColor=#82b366;" parent="FxF3UWBgYlLPX7A-So-d-130" vertex="1">
          <mxGeometry x="35" y="574" width="120" height="30" as="geometry" />
        </mxCell>
        <mxCell id="FxF3UWBgYlLPX7A-So-d-192" value="여행 Q&amp;amp;A상세페이지&lt;br&gt;/qna_board/detail.jsp" style="rounded=0;whiteSpace=wrap;html=1;" parent="FxF3UWBgYlLPX7A-So-d-130" vertex="1">
          <mxGeometry x="195" y="604" width="120" height="60" as="geometry" />
        </mxCell>
        <mxCell id="FxF3UWBgYlLPX7A-So-d-193" style="edgeStyle=orthogonalEdgeStyle;rounded=0;orthogonalLoop=1;jettySize=auto;html=1;exitX=0.5;exitY=1;exitDx=0;exitDy=0;entryX=0.5;entryY=1;entryDx=0;entryDy=0;" parent="FxF3UWBgYlLPX7A-So-d-130" edge="1">
          <mxGeometry x="-45" y="-623" as="geometry">
            <mxPoint x="95" y="444" as="sourcePoint" />
            <mxPoint x="255" y="444" as="targetPoint" />
            <Array as="points">
              <mxPoint x="95" y="474" />
              <mxPoint x="255" y="474" />
            </Array>
          </mxGeometry>
        </mxCell>
        <mxCell id="FxF3UWBgYlLPX7A-So-d-194" value="게시글 클릭" style="edgeLabel;html=1;align=center;verticalAlign=middle;resizable=0;points=[];" parent="FxF3UWBgYlLPX7A-So-d-193" vertex="1" connectable="0">
          <mxGeometry x="-0.27" y="-1" relative="1" as="geometry">
            <mxPoint x="32" y="1" as="offset" />
          </mxGeometry>
        </mxCell>
        <mxCell id="FxF3UWBgYlLPX7A-So-d-195" style="edgeStyle=orthogonalEdgeStyle;rounded=0;orthogonalLoop=1;jettySize=auto;html=1;entryX=1;entryY=0.5;entryDx=0;entryDy=0;" parent="FxF3UWBgYlLPX7A-So-d-130" edge="1">
          <mxGeometry x="-45" y="-623" as="geometry">
            <mxPoint x="405" y="134" as="sourcePoint" />
            <mxPoint x="314" y="133.5" as="targetPoint" />
            <Array as="points">
              <mxPoint x="360" y="134" />
            </Array>
          </mxGeometry>
        </mxCell>
        <mxCell id="FxF3UWBgYlLPX7A-So-d-196" value="등록 실패" style="edgeLabel;html=1;align=center;verticalAlign=middle;resizable=0;points=[];" parent="FxF3UWBgYlLPX7A-So-d-195" vertex="1" connectable="0">
          <mxGeometry x="-0.28" y="2" relative="1" as="geometry">
            <mxPoint x="-14" y="-1" as="offset" />
          </mxGeometry>
        </mxCell>
        <mxCell id="FxF3UWBgYlLPX7A-So-d-197" value="특정 글의 정보가 미리 표시 되도록 구성&lt;br&gt;글번호를 이용해 정보를 불러온 뒤&lt;br&gt;화면에 표시하도록 한다!" style="text;html=1;strokeColor=none;fillColor=none;align=center;verticalAlign=middle;whiteSpace=wrap;rounded=0;fontStyle=0;fontColor=#0000FF;" parent="FxF3UWBgYlLPX7A-So-d-130" vertex="1">
          <mxGeometry x="365" y="270" width="220" height="64" as="geometry" />
        </mxCell>
        <mxCell id="FxF3UWBgYlLPX7A-So-d-198" value="특정 글의 번호를 받아 삭제한다" style="text;html=1;strokeColor=none;fillColor=none;align=center;verticalAlign=middle;whiteSpace=wrap;rounded=0;fontStyle=0;fontColor=#0000FF;" parent="FxF3UWBgYlLPX7A-So-d-130" vertex="1">
          <mxGeometry x="370" y="537" width="190" height="28.5" as="geometry" />
        </mxCell>
        <mxCell id="FxF3UWBgYlLPX7A-So-d-199" value="" style="rounded=1;whiteSpace=wrap;html=1;strokeColor=#000000;fontColor=#000000;align=left;arcSize=5;" parent="FxF3UWBgYlLPX7A-So-d-130" vertex="1">
          <mxGeometry x="180" y="768" width="550" height="189" as="geometry" />
        </mxCell>
        <mxCell id="FxF3UWBgYlLPX7A-So-d-200" value="6. 게시글 좋아요(생성, 취소)" style="shape=callout;whiteSpace=wrap;html=1;perimeter=calloutPerimeter;align=center;fillColor=#f5f5f5;strokeColor=#666666;fontColor=#333333;position2=0.5;size=10;position=0.5;" parent="FxF3UWBgYlLPX7A-So-d-130" vertex="1">
          <mxGeometry x="195" y="747" width="160" height="40" as="geometry" />
        </mxCell>
        <mxCell id="FxF3UWBgYlLPX7A-So-d-201" value="" style="rounded=0;whiteSpace=wrap;html=1;fillColor=#f8cecc;strokeColor=#b85450;" parent="FxF3UWBgYlLPX7A-So-d-130" vertex="1">
          <mxGeometry x="195" y="794" width="120" height="30" as="geometry" />
        </mxCell>
        <mxCell id="FxF3UWBgYlLPX7A-So-d-202" value="" style="rounded=0;whiteSpace=wrap;html=1;fillColor=#dae8fc;strokeColor=#6c8ebf;" parent="FxF3UWBgYlLPX7A-So-d-130" vertex="1">
          <mxGeometry x="195" y="914" width="120" height="30" as="geometry" />
        </mxCell>
        <mxCell id="FxF3UWBgYlLPX7A-So-d-203" value="" style="rounded=0;whiteSpace=wrap;html=1;fillColor=#d5e8d4;strokeColor=#82b366;" parent="FxF3UWBgYlLPX7A-So-d-130" vertex="1">
          <mxGeometry x="195" y="824" width="120" height="30" as="geometry" />
        </mxCell>
        <mxCell id="FxF3UWBgYlLPX7A-So-d-204" style="edgeStyle=orthogonalEdgeStyle;rounded=0;orthogonalLoop=1;jettySize=auto;html=1;exitX=0;exitY=0.75;exitDx=0;exitDy=0;entryX=1;entryY=0.383;entryDx=0;entryDy=0;entryPerimeter=0;" parent="FxF3UWBgYlLPX7A-So-d-130" edge="1">
          <mxGeometry x="-45" y="-623" as="geometry">
            <mxPoint x="405" y="884.0999999999999" as="sourcePoint" />
            <mxPoint x="315" y="883.5799999999999" as="targetPoint" />
            <Array as="points">
              <mxPoint x="315" y="884" />
            </Array>
          </mxGeometry>
        </mxCell>
        <mxCell id="FxF3UWBgYlLPX7A-So-d-205" value="좋아요 취소" style="edgeLabel;html=1;align=center;verticalAlign=middle;resizable=0;points=[];" parent="FxF3UWBgYlLPX7A-So-d-204" vertex="1" connectable="0">
          <mxGeometry x="-0.2486" y="1" relative="1" as="geometry">
            <mxPoint x="-7" as="offset" />
          </mxGeometry>
        </mxCell>
        <mxCell id="FxF3UWBgYlLPX7A-So-d-206" value="게시글 좋아요 처리&lt;br&gt;/board/vote.do" style="rounded=0;whiteSpace=wrap;html=1;fontColor=#FF3333;" parent="FxF3UWBgYlLPX7A-So-d-130" vertex="1">
          <mxGeometry x="405" y="832.5" width="120" height="60" as="geometry" />
        </mxCell>
        <mxCell id="FxF3UWBgYlLPX7A-So-d-207" value="" style="edgeStyle=orthogonalEdgeStyle;rounded=0;orthogonalLoop=1;jettySize=auto;html=1;strokeColor=#3333FF;" parent="FxF3UWBgYlLPX7A-So-d-130" edge="1">
          <mxGeometry x="-45" y="-623" as="geometry">
            <mxPoint x="315" y="867" as="sourcePoint" />
            <mxPoint x="405" y="867" as="targetPoint" />
            <Array as="points">
              <mxPoint x="375" y="867" />
              <mxPoint x="375" y="867" />
            </Array>
          </mxGeometry>
        </mxCell>
        <mxCell id="FxF3UWBgYlLPX7A-So-d-208" value="member_no" style="edgeLabel;html=1;align=left;verticalAlign=middle;resizable=0;points=[];" parent="FxF3UWBgYlLPX7A-So-d-207" vertex="1" connectable="0">
          <mxGeometry x="-0.1933" y="-1" relative="1" as="geometry">
            <mxPoint x="-30" y="-11" as="offset" />
          </mxGeometry>
        </mxCell>
        <mxCell id="FxF3UWBgYlLPX7A-So-d-209" value="" style="rounded=0;whiteSpace=wrap;html=1;fillColor=#f8cecc;strokeColor=#b85450;" parent="FxF3UWBgYlLPX7A-So-d-130" vertex="1">
          <mxGeometry x="602" y="794" width="120" height="30" as="geometry" />
        </mxCell>
        <mxCell id="FxF3UWBgYlLPX7A-So-d-210" style="edgeStyle=orthogonalEdgeStyle;rounded=0;orthogonalLoop=1;jettySize=auto;html=1;exitX=0;exitY=0.5;exitDx=0;exitDy=0;strokeColor=#0000FF;" parent="FxF3UWBgYlLPX7A-So-d-130" source="FxF3UWBgYlLPX7A-So-d-212" edge="1">
          <mxGeometry x="-45" y="-623" as="geometry">
            <mxPoint x="525" y="884" as="targetPoint" />
            <Array as="points">
              <mxPoint x="525" y="884" />
            </Array>
          </mxGeometry>
        </mxCell>
        <mxCell id="FxF3UWBgYlLPX7A-So-d-211" value="member_no" style="edgeLabel;html=1;align=center;verticalAlign=middle;resizable=0;points=[];" parent="FxF3UWBgYlLPX7A-So-d-210" vertex="1" connectable="0">
          <mxGeometry x="-0.3293" relative="1" as="geometry">
            <mxPoint x="-11" y="8.5" as="offset" />
          </mxGeometry>
        </mxCell>
        <mxCell id="FxF3UWBgYlLPX7A-So-d-212" value="여행 Q&amp;amp;A상세페이지&lt;br&gt;/qna_board/detail.jsp" style="rounded=0;whiteSpace=wrap;html=1;" parent="FxF3UWBgYlLPX7A-So-d-130" vertex="1">
          <mxGeometry x="602" y="854" width="120" height="60" as="geometry" />
        </mxCell>
        <mxCell id="FxF3UWBgYlLPX7A-So-d-213" style="edgeStyle=orthogonalEdgeStyle;rounded=0;orthogonalLoop=1;jettySize=auto;html=1;exitX=1;exitY=0.5;exitDx=0;exitDy=0;entryX=0;entryY=0.15;entryDx=0;entryDy=0;entryPerimeter=0;" parent="FxF3UWBgYlLPX7A-So-d-130" source="FxF3UWBgYlLPX7A-So-d-206" target="FxF3UWBgYlLPX7A-So-d-212" edge="1">
          <mxGeometry x="-45" y="-623" as="geometry">
            <Array as="points">
              <mxPoint x="565" y="863" />
              <mxPoint x="565" y="863" />
            </Array>
          </mxGeometry>
        </mxCell>
        <mxCell id="FxF3UWBgYlLPX7A-So-d-214" value="좋아요 성공" style="edgeLabel;html=1;align=center;verticalAlign=middle;resizable=0;points=[];" parent="FxF3UWBgYlLPX7A-So-d-213" vertex="1" connectable="0">
          <mxGeometry x="-0.205" y="-4" relative="1" as="geometry">
            <mxPoint x="3" y="-5" as="offset" />
          </mxGeometry>
        </mxCell>
        <mxCell id="FxF3UWBgYlLPX7A-So-d-215" value="" style="rounded=0;whiteSpace=wrap;html=1;fillColor=#dae8fc;strokeColor=#6c8ebf;" parent="FxF3UWBgYlLPX7A-So-d-130" vertex="1">
          <mxGeometry x="602" y="914" width="120" height="30" as="geometry" />
        </mxCell>
        <mxCell id="FxF3UWBgYlLPX7A-So-d-216" value="" style="rounded=0;whiteSpace=wrap;html=1;fillColor=#d5e8d4;strokeColor=#82b366;" parent="FxF3UWBgYlLPX7A-So-d-130" vertex="1">
          <mxGeometry x="602" y="824" width="120" height="30" as="geometry" />
        </mxCell>
        <mxCell id="FxF3UWBgYlLPX7A-So-d-217" value="여행 Q&amp;amp;A상세페이지&lt;br&gt;/qna_board/detail.jsp" style="rounded=0;whiteSpace=wrap;html=1;" parent="FxF3UWBgYlLPX7A-So-d-130" vertex="1">
          <mxGeometry x="195" y="854" width="120" height="60" as="geometry" />
        </mxCell>
        <mxCell id="FxF3UWBgYlLPX7A-So-d-218" value="user_no로 좋아요 수 카운트" style="text;html=1;strokeColor=none;fillColor=none;align=center;verticalAlign=middle;whiteSpace=wrap;rounded=0;fontStyle=0;fontColor=#0000FF;" parent="FxF3UWBgYlLPX7A-So-d-130" vertex="1">
          <mxGeometry x="370" y="787" width="190" height="28.5" as="geometry" />
        </mxCell>
        <mxCell id="FxF3UWBgYlLPX7A-So-d-219" value="" style="rounded=0;whiteSpace=wrap;html=1;fillColor=#f8cecc;strokeColor=#b85450;" parent="FxF3UWBgYlLPX7A-So-d-130" vertex="1">
          <mxGeometry x="35" y="793.5" width="120" height="30" as="geometry" />
        </mxCell>
        <mxCell id="FxF3UWBgYlLPX7A-So-d-220" value="여행 Q&amp;amp;A메인페이지&lt;br&gt;/qna_board/main.jsp" style="rounded=0;whiteSpace=wrap;html=1;" parent="FxF3UWBgYlLPX7A-So-d-130" vertex="1">
          <mxGeometry x="35" y="853.5" width="120" height="60" as="geometry" />
        </mxCell>
        <mxCell id="FxF3UWBgYlLPX7A-So-d-221" style="edgeStyle=orthogonalEdgeStyle;rounded=0;orthogonalLoop=1;jettySize=auto;html=1;exitX=0.5;exitY=1;exitDx=0;exitDy=0;entryX=0.5;entryY=1;entryDx=0;entryDy=0;" parent="FxF3UWBgYlLPX7A-So-d-130" source="FxF3UWBgYlLPX7A-So-d-223" edge="1">
          <mxGeometry x="-45" y="-623" as="geometry">
            <mxPoint x="255" y="943.5" as="targetPoint" />
            <Array as="points">
              <mxPoint x="95" y="976.5" />
              <mxPoint x="255" y="976.5" />
            </Array>
          </mxGeometry>
        </mxCell>
        <mxCell id="FxF3UWBgYlLPX7A-So-d-222" value="게시글 클릭" style="edgeLabel;html=1;align=center;verticalAlign=middle;resizable=0;points=[];" parent="FxF3UWBgYlLPX7A-So-d-221" vertex="1" connectable="0">
          <mxGeometry x="0.2035" y="1" relative="1" as="geometry">
            <mxPoint x="-23" as="offset" />
          </mxGeometry>
        </mxCell>
        <mxCell id="FxF3UWBgYlLPX7A-So-d-223" value="" style="rounded=0;whiteSpace=wrap;html=1;fillColor=#dae8fc;strokeColor=#6c8ebf;" parent="FxF3UWBgYlLPX7A-So-d-130" vertex="1">
          <mxGeometry x="35" y="913.5" width="120" height="30" as="geometry" />
        </mxCell>
        <mxCell id="FxF3UWBgYlLPX7A-So-d-224" value="" style="rounded=0;whiteSpace=wrap;html=1;fillColor=#d5e8d4;strokeColor=#82b366;" parent="FxF3UWBgYlLPX7A-So-d-130" vertex="1">
          <mxGeometry x="35" y="823.5" width="120" height="30" as="geometry" />
        </mxCell>
        <mxCell id="FxF3UWBgYlLPX7A-So-d-225" value="" style="rounded=1;whiteSpace=wrap;html=1;strokeColor=#000000;fontColor=#000000;align=left;arcSize=5;" parent="FxF3UWBgYlLPX7A-So-d-130" vertex="1">
          <mxGeometry x="180" y="1028" width="550" height="189" as="geometry" />
        </mxCell>
        <mxCell id="FxF3UWBgYlLPX7A-So-d-226" value="7. 댓글 등록" style="shape=callout;whiteSpace=wrap;html=1;perimeter=calloutPerimeter;align=center;fillColor=#f5f5f5;strokeColor=#666666;fontColor=#333333;position2=0.5;size=10;position=0.5;" parent="FxF3UWBgYlLPX7A-So-d-130" vertex="1">
          <mxGeometry x="195" y="1007" width="120" height="40" as="geometry" />
        </mxCell>
        <mxCell id="FxF3UWBgYlLPX7A-So-d-227" value="" style="rounded=0;whiteSpace=wrap;html=1;fillColor=#f8cecc;strokeColor=#b85450;" parent="FxF3UWBgYlLPX7A-So-d-130" vertex="1">
          <mxGeometry x="195" y="1054" width="120" height="30" as="geometry" />
        </mxCell>
        <mxCell id="FxF3UWBgYlLPX7A-So-d-228" value="" style="rounded=0;whiteSpace=wrap;html=1;fillColor=#dae8fc;strokeColor=#6c8ebf;" parent="FxF3UWBgYlLPX7A-So-d-130" vertex="1">
          <mxGeometry x="195" y="1174" width="120" height="30" as="geometry" />
        </mxCell>
        <mxCell id="FxF3UWBgYlLPX7A-So-d-229" value="" style="rounded=0;whiteSpace=wrap;html=1;fillColor=#d5e8d4;strokeColor=#82b366;" parent="FxF3UWBgYlLPX7A-So-d-130" vertex="1">
          <mxGeometry x="195" y="1084" width="120" height="30" as="geometry" />
        </mxCell>
        <mxCell id="FxF3UWBgYlLPX7A-So-d-230" value="게시글 댓글 처리&lt;br&gt;/board/opinion.do" style="rounded=0;whiteSpace=wrap;html=1;fontColor=#FF3333;" parent="FxF3UWBgYlLPX7A-So-d-130" vertex="1">
          <mxGeometry x="405" y="1092.5" width="120" height="60" as="geometry" />
        </mxCell>
        <mxCell id="FxF3UWBgYlLPX7A-So-d-231" value="" style="edgeStyle=orthogonalEdgeStyle;rounded=0;orthogonalLoop=1;jettySize=auto;html=1;strokeColor=#3333FF;" parent="FxF3UWBgYlLPX7A-So-d-130" edge="1">
          <mxGeometry x="-45" y="-623" as="geometry">
            <mxPoint x="315" y="1127" as="sourcePoint" />
            <mxPoint x="405" y="1127" as="targetPoint" />
            <Array as="points">
              <mxPoint x="375" y="1127" />
              <mxPoint x="375" y="1127" />
            </Array>
          </mxGeometry>
        </mxCell>
        <mxCell id="FxF3UWBgYlLPX7A-So-d-232" value="member_no&lt;br&gt;opinion_text" style="edgeLabel;html=1;align=left;verticalAlign=middle;resizable=0;points=[];" parent="FxF3UWBgYlLPX7A-So-d-231" vertex="1" connectable="0">
          <mxGeometry x="-0.1933" y="-1" relative="1" as="geometry">
            <mxPoint x="-30" y="-20" as="offset" />
          </mxGeometry>
        </mxCell>
        <mxCell id="FxF3UWBgYlLPX7A-So-d-233" value="" style="rounded=0;whiteSpace=wrap;html=1;fillColor=#f8cecc;strokeColor=#b85450;" parent="FxF3UWBgYlLPX7A-So-d-130" vertex="1">
          <mxGeometry x="602" y="1054" width="120" height="30" as="geometry" />
        </mxCell>
        <mxCell id="FxF3UWBgYlLPX7A-So-d-234" value="여행 Q&amp;amp;A상세페이지&lt;br&gt;/qna_board/detail.jsp" style="rounded=0;whiteSpace=wrap;html=1;" parent="FxF3UWBgYlLPX7A-So-d-130" vertex="1">
          <mxGeometry x="602" y="1114" width="120" height="60" as="geometry" />
        </mxCell>
        <mxCell id="FxF3UWBgYlLPX7A-So-d-235" style="edgeStyle=orthogonalEdgeStyle;rounded=0;orthogonalLoop=1;jettySize=auto;html=1;exitX=1;exitY=0.5;exitDx=0;exitDy=0;entryX=0;entryY=0.15;entryDx=0;entryDy=0;entryPerimeter=0;" parent="FxF3UWBgYlLPX7A-So-d-130" source="FxF3UWBgYlLPX7A-So-d-230" target="FxF3UWBgYlLPX7A-So-d-234" edge="1">
          <mxGeometry x="-45" y="-623" as="geometry">
            <Array as="points">
              <mxPoint x="565" y="1123" />
              <mxPoint x="565" y="1123" />
            </Array>
          </mxGeometry>
        </mxCell>
        <mxCell id="FxF3UWBgYlLPX7A-So-d-236" value="성공" style="edgeLabel;html=1;align=center;verticalAlign=middle;resizable=0;points=[];" parent="FxF3UWBgYlLPX7A-So-d-235" vertex="1" connectable="0">
          <mxGeometry x="-0.205" y="-4" relative="1" as="geometry">
            <mxPoint x="3" y="-5" as="offset" />
          </mxGeometry>
        </mxCell>
        <mxCell id="FxF3UWBgYlLPX7A-So-d-237" value="" style="rounded=0;whiteSpace=wrap;html=1;fillColor=#dae8fc;strokeColor=#6c8ebf;" parent="FxF3UWBgYlLPX7A-So-d-130" vertex="1">
          <mxGeometry x="602" y="1174" width="120" height="30" as="geometry" />
        </mxCell>
        <mxCell id="FxF3UWBgYlLPX7A-So-d-238" value="" style="rounded=0;whiteSpace=wrap;html=1;fillColor=#d5e8d4;strokeColor=#82b366;" parent="FxF3UWBgYlLPX7A-So-d-130" vertex="1">
          <mxGeometry x="602" y="1084" width="120" height="30" as="geometry" />
        </mxCell>
        <mxCell id="FxF3UWBgYlLPX7A-So-d-239" value="여행 Q&amp;amp;A상세페이지&lt;br&gt;/qna_board/detail.jsp" style="rounded=0;whiteSpace=wrap;html=1;" parent="FxF3UWBgYlLPX7A-So-d-130" vertex="1">
          <mxGeometry x="195" y="1114" width="120" height="60" as="geometry" />
        </mxCell>
        <mxCell id="FxF3UWBgYlLPX7A-So-d-240" value="" style="rounded=0;whiteSpace=wrap;html=1;fillColor=#f8cecc;strokeColor=#b85450;" parent="FxF3UWBgYlLPX7A-So-d-130" vertex="1">
          <mxGeometry x="35" y="1053.5" width="120" height="30" as="geometry" />
        </mxCell>
        <mxCell id="FxF3UWBgYlLPX7A-So-d-241" value="여행 Q&amp;amp;A메인페이지&lt;br&gt;/qna_board/main.jsp" style="rounded=0;whiteSpace=wrap;html=1;" parent="FxF3UWBgYlLPX7A-So-d-130" vertex="1">
          <mxGeometry x="35" y="1113.5" width="120" height="60" as="geometry" />
        </mxCell>
        <mxCell id="FxF3UWBgYlLPX7A-So-d-242" style="edgeStyle=orthogonalEdgeStyle;rounded=0;orthogonalLoop=1;jettySize=auto;html=1;exitX=0.5;exitY=1;exitDx=0;exitDy=0;entryX=0.5;entryY=1;entryDx=0;entryDy=0;" parent="FxF3UWBgYlLPX7A-So-d-130" source="FxF3UWBgYlLPX7A-So-d-244" edge="1">
          <mxGeometry x="-45" y="-623" as="geometry">
            <mxPoint x="255" y="1203.5" as="targetPoint" />
            <Array as="points">
              <mxPoint x="95" y="1236.5" />
              <mxPoint x="255" y="1236.5" />
            </Array>
          </mxGeometry>
        </mxCell>
        <mxCell id="FxF3UWBgYlLPX7A-So-d-243" value="게시글 클릭" style="edgeLabel;html=1;align=center;verticalAlign=middle;resizable=0;points=[];" parent="FxF3UWBgYlLPX7A-So-d-242" vertex="1" connectable="0">
          <mxGeometry x="0.2035" y="1" relative="1" as="geometry">
            <mxPoint x="-23" as="offset" />
          </mxGeometry>
        </mxCell>
        <mxCell id="FxF3UWBgYlLPX7A-So-d-244" value="" style="rounded=0;whiteSpace=wrap;html=1;fillColor=#dae8fc;strokeColor=#6c8ebf;" parent="FxF3UWBgYlLPX7A-So-d-130" vertex="1">
          <mxGeometry x="35" y="1173.5" width="120" height="30" as="geometry" />
        </mxCell>
        <mxCell id="FxF3UWBgYlLPX7A-So-d-245" value="" style="rounded=0;whiteSpace=wrap;html=1;fillColor=#d5e8d4;strokeColor=#82b366;" parent="FxF3UWBgYlLPX7A-So-d-130" vertex="1">
          <mxGeometry x="35" y="1083.5" width="120" height="30" as="geometry" />
        </mxCell>
        <mxCell id="FxF3UWBgYlLPX7A-So-d-246" value="Q&amp;amp;A_Board" style="shape=callout;whiteSpace=wrap;html=1;perimeter=calloutPerimeter;align=center;fillColor=#f5f5f5;strokeColor=#666666;fontColor=#333333;position2=0.5;size=10;position=0.5;" parent="FxF3UWBgYlLPX7A-So-d-130" vertex="1">
          <mxGeometry y="-50" width="140" height="40" as="geometry" />
        </mxCell>
        <mxCell id="FxF3UWBgYlLPX7A-So-d-247" value="게시글 작성자가 아닐시&lt;br&gt;글쓰기, 좋아요, 수정, 삭제&lt;br&gt;버튼 숨기기" style="shape=note;whiteSpace=wrap;html=1;backgroundOutline=1;darkOpacity=0.05;" parent="FxF3UWBgYlLPX7A-So-d-130" vertex="1">
          <mxGeometry x="-139" y="310" width="149" height="131" as="geometry" />
        </mxCell>
        <mxCell id="FxF3UWBgYlLPX7A-So-d-248" value="목록/키워드로 검색&lt;br&gt;+ 최신순/댓글순" style="rounded=0;whiteSpace=wrap;html=1;" parent="FxF3UWBgYlLPX7A-So-d-130" vertex="1">
          <mxGeometry x="707" y="1306" width="120" height="60" as="geometry" />
        </mxCell>
        <mxCell id="FxF3UWBgYlLPX7A-So-d-249" value="목록/키워드 검색없이&lt;br&gt;최신순, 댓글순 정렬" style="rounded=0;whiteSpace=wrap;html=1;" parent="FxF3UWBgYlLPX7A-So-d-130" vertex="1">
          <mxGeometry x="710" y="1463" width="120" height="60" as="geometry" />
        </mxCell>
        <mxCell id="FxF3UWBgYlLPX7A-So-d-250" value="등록 버튼 클릭" style="edgeLabel;html=1;align=center;verticalAlign=middle;resizable=0;points=[];" parent="FxF3UWBgYlLPX7A-So-d-130" vertex="1" connectable="0">
          <mxGeometry x="355" y="1144" as="geometry" />
        </mxCell>
        <mxCell id="FxF3UWBgYlLPX7A-So-d-251" value="" style="rounded=1;whiteSpace=wrap;html=1;arcSize=3;" parent="1" vertex="1">
          <mxGeometry x="260" width="620" height="450" as="geometry" />
        </mxCell>
        <mxCell id="FxF3UWBgYlLPX7A-So-d-252" value="" style="edgeStyle=orthogonalEdgeStyle;rounded=0;orthogonalLoop=1;jettySize=auto;html=1;strokeColor=#0000FF;" parent="1" source="FxF3UWBgYlLPX7A-So-d-254" edge="1">
          <mxGeometry x="270" y="-10" as="geometry">
            <Array as="points">
              <mxPoint x="510" y="235" />
              <mxPoint x="510" y="235" />
            </Array>
            <mxPoint x="530" y="235" as="targetPoint" />
          </mxGeometry>
        </mxCell>
        <mxCell id="FxF3UWBgYlLPX7A-So-d-253" value="keyword" style="edgeLabel;html=1;align=center;verticalAlign=middle;resizable=0;points=[];" parent="FxF3UWBgYlLPX7A-So-d-252" vertex="1" connectable="0">
          <mxGeometry x="-0.0222" y="1" relative="1" as="geometry">
            <mxPoint x="-4" y="1" as="offset" />
          </mxGeometry>
        </mxCell>
        <mxCell id="FxF3UWBgYlLPX7A-So-d-254" value="헤더+메뉴&lt;br&gt;/template/header.jsp" style="rounded=0;whiteSpace=wrap;html=1;fillColor=#f8cecc;strokeColor=#b85450;" parent="1" vertex="1">
          <mxGeometry x="300" y="220" width="120" height="30" as="geometry" />
        </mxCell>
        <mxCell id="FxF3UWBgYlLPX7A-So-d-255" value="검색결과" style="shape=callout;whiteSpace=wrap;html=1;perimeter=calloutPerimeter;align=center;fillColor=#f5f5f5;strokeColor=#666666;fontColor=#333333;position2=0.5;size=10;position=0.5;base=20;" parent="1" vertex="1">
          <mxGeometry x="320" y="-10" width="120" height="40" as="geometry" />
        </mxCell>
        <mxCell id="FxF3UWBgYlLPX7A-So-d-256" value="" style="endArrow=classic;html=1;entryX=0;entryY=0.5;entryDx=0;entryDy=0;exitX=0.692;exitY=0;exitDx=0;exitDy=0;exitPerimeter=0;" parent="1" edge="1">
          <mxGeometry x="270" y="-10" width="50" height="50" as="geometry">
            <mxPoint x="613.04" y="180" as="sourcePoint" />
            <mxPoint x="710" y="130" as="targetPoint" />
            <Array as="points">
              <mxPoint x="614" y="130" />
            </Array>
          </mxGeometry>
        </mxCell>
        <mxCell id="FxF3UWBgYlLPX7A-So-d-257" value="keyword&lt;br&gt;board_title" style="edgeLabel;html=1;align=center;verticalAlign=middle;resizable=0;points=[];" parent="FxF3UWBgYlLPX7A-So-d-256" vertex="1" connectable="0">
          <mxGeometry x="0.2716" y="1" relative="1" as="geometry">
            <mxPoint y="-15" as="offset" />
          </mxGeometry>
        </mxCell>
        <mxCell id="FxF3UWBgYlLPX7A-So-d-258" value="" style="endArrow=classic;html=1;strokeColor=#000000;exitX=0.5;exitY=1;exitDx=0;exitDy=0;entryX=0;entryY=0.5;entryDx=0;entryDy=0;" parent="1" source="FxF3UWBgYlLPX7A-So-d-273" edge="1">
          <mxGeometry x="270" y="-10" width="50" height="50" as="geometry">
            <mxPoint x="614" y="300" as="sourcePoint" />
            <mxPoint x="710" y="350" as="targetPoint" />
            <Array as="points">
              <mxPoint x="590" y="350" />
            </Array>
          </mxGeometry>
        </mxCell>
        <mxCell id="FxF3UWBgYlLPX7A-So-d-259" value="" style="group" parent="1" vertex="1" connectable="0">
          <mxGeometry x="710" y="30" width="140" height="150" as="geometry" />
        </mxCell>
        <mxCell id="FxF3UWBgYlLPX7A-So-d-260" value="" style="group" parent="FxF3UWBgYlLPX7A-So-d-259" vertex="1" connectable="0">
          <mxGeometry width="140" height="150" as="geometry" />
        </mxCell>
        <mxCell id="FxF3UWBgYlLPX7A-So-d-261" value="검색결과&lt;br&gt;/search/tiplist_more.jsp?keyword=keyword" style="rounded=0;whiteSpace=wrap;html=1;" parent="FxF3UWBgYlLPX7A-So-d-260" vertex="1">
          <mxGeometry y="60" width="140" height="60" as="geometry" />
        </mxCell>
        <mxCell id="FxF3UWBgYlLPX7A-So-d-262" value="" style="rounded=0;whiteSpace=wrap;html=1;fillColor=#d5e8d4;strokeColor=#82b366;" parent="FxF3UWBgYlLPX7A-So-d-260" vertex="1">
          <mxGeometry y="30" width="140" height="30" as="geometry" />
        </mxCell>
        <mxCell id="FxF3UWBgYlLPX7A-So-d-263" value="" style="rounded=0;whiteSpace=wrap;html=1;fillColor=#dae8fc;strokeColor=#6c8ebf;" parent="FxF3UWBgYlLPX7A-So-d-260" vertex="1">
          <mxGeometry y="120" width="140" height="30" as="geometry" />
        </mxCell>
        <mxCell id="FxF3UWBgYlLPX7A-So-d-264" value="" style="rounded=0;whiteSpace=wrap;html=1;fillColor=#f8cecc;strokeColor=#b85450;" parent="FxF3UWBgYlLPX7A-So-d-260" vertex="1">
          <mxGeometry width="140" height="30" as="geometry" />
        </mxCell>
        <mxCell id="FxF3UWBgYlLPX7A-So-d-265" value="" style="group" parent="1" vertex="1" connectable="0">
          <mxGeometry x="710" y="280" width="140" height="150" as="geometry" />
        </mxCell>
        <mxCell id="FxF3UWBgYlLPX7A-So-d-266" value="검색결과&lt;br&gt;/search/qnalist_more.jsp?keyword=keyword" style="rounded=0;whiteSpace=wrap;html=1;" parent="FxF3UWBgYlLPX7A-So-d-265" vertex="1">
          <mxGeometry y="60" width="140" height="60" as="geometry" />
        </mxCell>
        <mxCell id="FxF3UWBgYlLPX7A-So-d-267" value="" style="rounded=0;whiteSpace=wrap;html=1;fillColor=#d5e8d4;strokeColor=#82b366;" parent="FxF3UWBgYlLPX7A-So-d-265" vertex="1">
          <mxGeometry y="30" width="140" height="30" as="geometry" />
        </mxCell>
        <mxCell id="FxF3UWBgYlLPX7A-So-d-268" value="" style="rounded=0;whiteSpace=wrap;html=1;fillColor=#dae8fc;strokeColor=#6c8ebf;" parent="FxF3UWBgYlLPX7A-So-d-265" vertex="1">
          <mxGeometry y="120" width="140" height="30" as="geometry" />
        </mxCell>
        <mxCell id="FxF3UWBgYlLPX7A-So-d-269" value="" style="rounded=0;whiteSpace=wrap;html=1;fillColor=#f8cecc;strokeColor=#b85450;" parent="FxF3UWBgYlLPX7A-So-d-265" vertex="1">
          <mxGeometry width="140" height="30" as="geometry" />
        </mxCell>
        <mxCell id="FxF3UWBgYlLPX7A-So-d-270" value="" style="group" parent="1" vertex="1" connectable="0">
          <mxGeometry x="530" y="160" width="120" height="150" as="geometry" />
        </mxCell>
        <mxCell id="FxF3UWBgYlLPX7A-So-d-271" value="검색결과&lt;br&gt;/search/list.jsp" style="rounded=0;whiteSpace=wrap;html=1;" parent="FxF3UWBgYlLPX7A-So-d-270" vertex="1">
          <mxGeometry y="60" width="120" height="60" as="geometry" />
        </mxCell>
        <mxCell id="FxF3UWBgYlLPX7A-So-d-272" value="" style="rounded=0;whiteSpace=wrap;html=1;fillColor=#d5e8d4;strokeColor=#82b366;" parent="FxF3UWBgYlLPX7A-So-d-270" vertex="1">
          <mxGeometry y="30" width="120" height="30" as="geometry" />
        </mxCell>
        <mxCell id="FxF3UWBgYlLPX7A-So-d-273" value="" style="rounded=0;whiteSpace=wrap;html=1;fillColor=#dae8fc;strokeColor=#6c8ebf;" parent="FxF3UWBgYlLPX7A-So-d-270" vertex="1">
          <mxGeometry y="120" width="120" height="30" as="geometry" />
        </mxCell>
        <mxCell id="FxF3UWBgYlLPX7A-So-d-274" value="" style="rounded=0;whiteSpace=wrap;html=1;fillColor=#f8cecc;strokeColor=#b85450;" parent="FxF3UWBgYlLPX7A-So-d-270" vertex="1">
          <mxGeometry width="120" height="30" as="geometry" />
        </mxCell>
        <mxCell id="FxF3UWBgYlLPX7A-So-d-275" value="keyword&lt;br&gt;board_title" style="edgeLabel;html=1;align=center;verticalAlign=middle;resizable=0;points=[];" parent="1" vertex="1" connectable="0">
          <mxGeometry x="662.00078484919" y="364" as="geometry" />
        </mxCell>
        <mxCell id="FxF3UWBgYlLPX7A-So-d-276" value="여행Q&amp;amp;A 검색결과 더보기" style="text;html=1;strokeColor=none;fillColor=none;align=center;verticalAlign=middle;whiteSpace=wrap;rounded=0;" parent="1" vertex="1">
          <mxGeometry x="710" y="260" width="140" height="20" as="geometry" />
        </mxCell>
        <mxCell id="FxF3UWBgYlLPX7A-So-d-277" value="여행꿀팁 검색결과 더보기" style="text;html=1;strokeColor=none;fillColor=none;align=center;verticalAlign=middle;whiteSpace=wrap;rounded=0;" parent="1" vertex="1">
          <mxGeometry x="710" y="10" width="140" height="20" as="geometry" />
        </mxCell>
        <mxCell id="FxF3UWBgYlLPX7A-So-d-278" value="" style="shape=callout;whiteSpace=wrap;html=1;perimeter=calloutPerimeter;" parent="1" vertex="1">
          <mxGeometry x="-510" y="800" width="120" height="80" as="geometry" />
        </mxCell>
        <mxCell id="FxF3UWBgYlLPX7A-So-d-279" value="" style="rounded=1;whiteSpace=wrap;html=1;" parent="1" vertex="1">
          <mxGeometry x="-13" y="-491" width="620" height="240" as="geometry" />
        </mxCell>
        <mxCell id="FxF3UWBgYlLPX7A-So-d-280" value="" style="rounded=1;whiteSpace=wrap;html=1;" parent="1" vertex="1">
          <mxGeometry x="247" y="-931" width="580" height="310" as="geometry" />
        </mxCell>
        <mxCell id="FxF3UWBgYlLPX7A-So-d-281" value="메인페이지&lt;br&gt;/index.jsp" style="rounded=0;whiteSpace=wrap;html=1;" parent="1" vertex="1">
          <mxGeometry x="77" y="-1081" width="120" height="60" as="geometry" />
        </mxCell>
        <mxCell id="FxF3UWBgYlLPX7A-So-d-282" value="" style="rounded=0;whiteSpace=wrap;html=1;fillColor=#f8cecc;strokeColor=#b85450;" parent="1" vertex="1">
          <mxGeometry x="77" y="-1140" width="120" height="30" as="geometry" />
        </mxCell>
        <mxCell id="FxF3UWBgYlLPX7A-So-d-283" value="" style="rounded=0;whiteSpace=wrap;html=1;fillColor=#dae8fc;strokeColor=#6c8ebf;" parent="1" vertex="1">
          <mxGeometry x="77" y="-1021" width="120" height="30" as="geometry" />
        </mxCell>
        <mxCell id="FxF3UWBgYlLPX7A-So-d-284" value="회원가입&lt;br&gt;/member/join.jsp" style="rounded=0;whiteSpace=wrap;html=1;" parent="1" vertex="1">
          <mxGeometry x="277" y="-805" width="120" height="60" as="geometry" />
        </mxCell>
        <mxCell id="FxF3UWBgYlLPX7A-So-d-285" value="회원가입처리&lt;br&gt;/member/join.do" style="rounded=0;whiteSpace=wrap;html=1;fontColor=#FF0000;" parent="1" vertex="1">
          <mxGeometry x="497" y="-805" width="120" height="60" as="geometry" />
        </mxCell>
        <mxCell id="FxF3UWBgYlLPX7A-So-d-286" value="" style="edgeStyle=orthogonalEdgeStyle;rounded=0;orthogonalLoop=1;jettySize=auto;html=1;strokeColor=#3333FF;" parent="1" source="FxF3UWBgYlLPX7A-So-d-284" target="FxF3UWBgYlLPX7A-So-d-285" edge="1">
          <mxGeometry x="-743" y="-1120" as="geometry" />
        </mxCell>
        <mxCell id="FxF3UWBgYlLPX7A-So-d-287" value="member_id&lt;br&gt;member_pw&lt;br&gt;member_nick&lt;br&gt;" style="edgeLabel;html=1;align=left;verticalAlign=middle;resizable=0;points=[];" parent="FxF3UWBgYlLPX7A-So-d-286" vertex="1" connectable="0">
          <mxGeometry x="0.3448" y="-1" relative="1" as="geometry">
            <mxPoint x="-56.9" y="-31" as="offset" />
          </mxGeometry>
        </mxCell>
        <mxCell id="FxF3UWBgYlLPX7A-So-d-288" value="" style="edgeStyle=orthogonalEdgeStyle;rounded=0;orthogonalLoop=1;jettySize=auto;html=1;" parent="1" source="FxF3UWBgYlLPX7A-So-d-289" edge="1">
          <mxGeometry relative="1" as="geometry">
            <mxPoint x="712" y="-676" as="targetPoint" />
          </mxGeometry>
        </mxCell>
        <mxCell id="FxF3UWBgYlLPX7A-So-d-289" value="회원가입성공&lt;br&gt;/member/join_success.jsp" style="rounded=0;whiteSpace=wrap;html=1;" parent="1" vertex="1">
          <mxGeometry x="637" y="-881" width="150" height="60" as="geometry" />
        </mxCell>
        <mxCell id="FxF3UWBgYlLPX7A-So-d-290" value="" style="edgeStyle=orthogonalEdgeStyle;rounded=0;orthogonalLoop=1;jettySize=auto;html=1;fontColor=#FF0000;entryX=0;entryY=0.5;entryDx=0;entryDy=0;exitX=0.5;exitY=0;exitDx=0;exitDy=0;" parent="1" source="FxF3UWBgYlLPX7A-So-d-285" target="FxF3UWBgYlLPX7A-So-d-289" edge="1">
          <mxGeometry x="-743" y="-1120" as="geometry">
            <Array as="points">
              <mxPoint x="557" y="-851" />
            </Array>
          </mxGeometry>
        </mxCell>
        <mxCell id="FxF3UWBgYlLPX7A-So-d-291" value="성공" style="edgeLabel;html=1;align=center;verticalAlign=middle;resizable=0;points=[];" parent="FxF3UWBgYlLPX7A-So-d-290" vertex="1" connectable="0">
          <mxGeometry x="0.4599" y="1" relative="1" as="geometry">
            <mxPoint as="offset" />
          </mxGeometry>
        </mxCell>
        <mxCell id="FxF3UWBgYlLPX7A-So-d-292" value="회원가입실패&lt;br&gt;/member/join_fail.jsp" style="rounded=0;whiteSpace=wrap;html=1;" parent="1" vertex="1">
          <mxGeometry x="637" y="-736" width="150" height="60" as="geometry" />
        </mxCell>
        <mxCell id="FxF3UWBgYlLPX7A-So-d-293" value="" style="edgeStyle=orthogonalEdgeStyle;rounded=0;orthogonalLoop=1;jettySize=auto;html=1;fontColor=#000000;exitX=0.5;exitY=1;exitDx=0;exitDy=0;entryX=0;entryY=0.5;entryDx=0;entryDy=0;" parent="1" source="FxF3UWBgYlLPX7A-So-d-285" target="FxF3UWBgYlLPX7A-So-d-292" edge="1">
          <mxGeometry x="-743" y="-1120" as="geometry">
            <Array as="points">
              <mxPoint x="557" y="-706" />
            </Array>
          </mxGeometry>
        </mxCell>
        <mxCell id="FxF3UWBgYlLPX7A-So-d-294" value="아이디중복" style="edgeLabel;html=1;align=center;verticalAlign=middle;resizable=0;points=[];fontColor=#000000;" parent="FxF3UWBgYlLPX7A-So-d-293" vertex="1" connectable="0">
          <mxGeometry x="0.3968" relative="1" as="geometry">
            <mxPoint x="-4.45" as="offset" />
          </mxGeometry>
        </mxCell>
        <mxCell id="FxF3UWBgYlLPX7A-So-d-295" value="회원가입&lt;br&gt;/member/join.jsp" style="rounded=0;whiteSpace=wrap;html=1;" parent="1" vertex="1">
          <mxGeometry x="277" y="-805" width="120" height="60" as="geometry" />
        </mxCell>
        <mxCell id="FxF3UWBgYlLPX7A-So-d-296" value="로그인입력&lt;br&gt;/member/login.jsp" style="rounded=0;whiteSpace=wrap;html=1;" parent="1" vertex="1">
          <mxGeometry x="77" y="-441" width="120" height="60" as="geometry" />
        </mxCell>
        <mxCell id="FxF3UWBgYlLPX7A-So-d-297" value="로그인 성공" style="edgeLabel;html=1;align=center;verticalAlign=middle;resizable=0;points=[];fontColor=#000000;" parent="1" vertex="1" connectable="0">
          <mxGeometry x="237" y="-280.9994117647059" as="geometry" />
        </mxCell>
        <mxCell id="FxF3UWBgYlLPX7A-So-d-298" style="edgeStyle=orthogonalEdgeStyle;rounded=0;orthogonalLoop=1;jettySize=auto;html=1;entryX=0;entryY=0.5;entryDx=0;entryDy=0;" parent="1" source="FxF3UWBgYlLPX7A-So-d-300" target="FxF3UWBgYlLPX7A-So-d-281" edge="1">
          <mxGeometry x="-743" y="-1120" as="geometry">
            <Array as="points">
              <mxPoint x="427" y="-271" />
              <mxPoint x="27" y="-271" />
              <mxPoint x="27" y="-1051" />
            </Array>
          </mxGeometry>
        </mxCell>
        <mxCell id="FxF3UWBgYlLPX7A-So-d-299" value="&lt;meta charset=&quot;utf-8&quot;&gt;&lt;span style=&quot;color: rgb(0, 0, 0); font-family: helvetica; font-size: 11px; font-style: normal; font-weight: 400; letter-spacing: normal; text-align: center; text-indent: 0px; text-transform: none; word-spacing: 0px; background-color: rgb(255, 255, 255); display: inline; float: none;&quot;&gt;로그인 실패&lt;/span&gt;" style="edgeStyle=orthogonalEdgeStyle;rounded=0;orthogonalLoop=1;jettySize=auto;html=1;exitX=0;exitY=0.75;exitDx=0;exitDy=0;entryX=1;entryY=0.75;entryDx=0;entryDy=0;" parent="1" source="FxF3UWBgYlLPX7A-So-d-300" target="FxF3UWBgYlLPX7A-So-d-296" edge="1">
          <mxGeometry x="-743" y="-1120" as="geometry">
            <mxPoint as="offset" />
          </mxGeometry>
        </mxCell>
        <mxCell id="FxF3UWBgYlLPX7A-So-d-300" value="로그인검사&lt;br&gt;/member/login.do" style="rounded=0;whiteSpace=wrap;html=1;fontColor=#FF3333;" parent="1" vertex="1">
          <mxGeometry x="367" y="-441" width="120" height="60" as="geometry" />
        </mxCell>
        <mxCell id="FxF3UWBgYlLPX7A-So-d-301" value="" style="edgeStyle=orthogonalEdgeStyle;rounded=0;orthogonalLoop=1;jettySize=auto;html=1;strokeColor=#3333FF;" parent="1" source="FxF3UWBgYlLPX7A-So-d-296" target="FxF3UWBgYlLPX7A-So-d-300" edge="1">
          <mxGeometry x="-743" y="-1120" as="geometry" />
        </mxCell>
        <mxCell id="FxF3UWBgYlLPX7A-So-d-302" value="member_id&lt;br&gt;member_pw" style="edgeLabel;html=1;align=left;verticalAlign=middle;resizable=0;points=[];" parent="FxF3UWBgYlLPX7A-So-d-301" vertex="1" connectable="0">
          <mxGeometry x="-0.1933" y="-1" relative="1" as="geometry">
            <mxPoint x="-30" y="-21" as="offset" />
          </mxGeometry>
        </mxCell>
        <mxCell id="FxF3UWBgYlLPX7A-So-d-303" value="&lt;font color=&quot;#ff3333&quot;&gt;세션에 데이터 추가&lt;br&gt;number=사용자번호&lt;br&gt;auth=사용자권한&lt;br&gt;&lt;/font&gt;" style="text;html=1;strokeColor=none;fillColor=none;align=left;verticalAlign=middle;whiteSpace=wrap;rounded=0;" parent="1" vertex="1">
          <mxGeometry x="497" y="-437" width="150" height="56" as="geometry" />
        </mxCell>
        <mxCell id="FxF3UWBgYlLPX7A-So-d-304" value="회원가입" style="text;html=1;align=center;verticalAlign=middle;resizable=0;points=[];autosize=1;" parent="1" vertex="1">
          <mxGeometry x="507" y="-951" width="60" height="20" as="geometry" />
        </mxCell>
        <mxCell id="FxF3UWBgYlLPX7A-So-d-305" value="" style="endArrow=none;html=1;exitX=0.5;exitY=1;exitDx=0;exitDy=0;entryX=0.5;entryY=0;entryDx=0;entryDy=0;" parent="1" source="FxF3UWBgYlLPX7A-So-d-283" target="FxF3UWBgYlLPX7A-So-d-309" edge="1">
          <mxGeometry x="-743" y="-1120" width="50" height="50" as="geometry">
            <mxPoint x="287" y="-701" as="sourcePoint" />
            <mxPoint x="337" y="-751" as="targetPoint" />
            <Array as="points" />
          </mxGeometry>
        </mxCell>
        <mxCell id="FxF3UWBgYlLPX7A-So-d-306" style="edgeStyle=orthogonalEdgeStyle;rounded=0;orthogonalLoop=1;jettySize=auto;html=1;entryX=0.002;entryY=0.642;entryDx=0;entryDy=0;entryPerimeter=0;" parent="1" source="FxF3UWBgYlLPX7A-So-d-309" target="FxF3UWBgYlLPX7A-So-d-295" edge="1">
          <mxGeometry x="-743" y="-1120" as="geometry" />
        </mxCell>
        <mxCell id="FxF3UWBgYlLPX7A-So-d-307" style="edgeStyle=orthogonalEdgeStyle;rounded=0;orthogonalLoop=1;jettySize=auto;html=1;exitX=0.5;exitY=1;exitDx=0;exitDy=0;entryX=0.5;entryY=0;entryDx=0;entryDy=0;" parent="1" source="FxF3UWBgYlLPX7A-So-d-309" target="FxF3UWBgYlLPX7A-So-d-296" edge="1">
          <mxGeometry x="-743" y="-1120" as="geometry">
            <mxPoint x="137" y="-471" as="targetPoint" />
          </mxGeometry>
        </mxCell>
        <mxCell id="FxF3UWBgYlLPX7A-So-d-308" style="edgeStyle=orthogonalEdgeStyle;rounded=0;orthogonalLoop=1;jettySize=auto;html=1;" parent="1" source="FxF3UWBgYlLPX7A-So-d-309" edge="1">
          <mxGeometry x="-743" y="-1120" as="geometry">
            <mxPoint x="-93.00000000000045" y="-766" as="targetPoint" />
            <Array as="points">
              <mxPoint x="-3" y="-766" />
              <mxPoint x="-3" y="-766" />
            </Array>
          </mxGeometry>
        </mxCell>
        <mxCell id="FxF3UWBgYlLPX7A-So-d-309" value="Login Button" style="rounded=1;whiteSpace=wrap;html=1;" parent="1" vertex="1">
          <mxGeometry x="77" y="-796" width="120" height="60" as="geometry" />
        </mxCell>
        <mxCell id="FxF3UWBgYlLPX7A-So-d-310" value="로그인" style="text;html=1;align=center;verticalAlign=middle;resizable=0;points=[];autosize=1;" parent="1" vertex="1">
          <mxGeometry x="242" y="-511" width="50" height="20" as="geometry" />
        </mxCell>
        <mxCell id="FxF3UWBgYlLPX7A-So-d-311" value="로그인 성공시&amp;nbsp;" style="text;html=1;align=center;verticalAlign=middle;resizable=0;points=[];autosize=1;" parent="1" vertex="1">
          <mxGeometry x="-53" y="-786" width="80" height="20" as="geometry" />
        </mxCell>
        <mxCell id="FxF3UWBgYlLPX7A-So-d-312" value="내정보&lt;br&gt;/member/my.jsp" style="rounded=0;whiteSpace=wrap;html=1;" parent="1" vertex="1">
          <mxGeometry x="-213" y="-796" width="120" height="60" as="geometry" />
        </mxCell>
        <mxCell id="FxF3UWBgYlLPX7A-So-d-313" value="로그인 성공시 닉네임&amp;nbsp; 버튼에 노출&lt;br&gt;&quot;{nickname}님 반갑습니다&quot;&lt;span style=&quot;color: rgba(0 , 0 , 0 , 0) ; font-family: monospace ; font-size: 0px&quot;&gt;%3CmxGraphModel%3E%3Croot%3E%3CmxCell%20id%3D%220%22%2F%3E%3CmxCell%20id%3D%221%22%20parent%3D%220%22%2F%3E%3CmxCell%20id%3D%222%22%20value%3D%22%EB%A1%9C%EA%B7%B8%EC%9D%B8%20%EC%84%B1%EA%B3%B5%EC%8B%9C%26amp%3Bnbsp%3B%22%20style%3D%22text%3Bhtml%3D1%3Balign%3Dcenter%3BverticalAlign%3Dmiddle%3Bresizable%3D0%3Bpoints%3D%5B%5D%3Bautosize%3D1%3B%22%20vertex%3D%221%22%20parent%3D%221%22%3E%3CmxGeometry%20x%3D%22240%22%20y%3D%22-355%22%20width%3D%2280%22%20height%3D%2220%22%20as%3D%22geometry%22%2F%3E%3C%2FmxCell%3E%3C%2Froot%3E%3C%2FmxGraphModel%3E&lt;/span&gt;" style="text;html=1;align=center;verticalAlign=middle;resizable=0;points=[];autosize=1;fillColor=#f5f5f5;strokeColor=#666666;fontColor=#333333;" parent="1" vertex="1">
          <mxGeometry x="47" y="-831" width="180" height="40" as="geometry" />
        </mxCell>
        <mxCell id="FxF3UWBgYlLPX7A-So-d-314" value="비밀번호 수정 (button)&lt;br&gt;닉네임 수정 (button)&amp;nbsp;&lt;br&gt;회원탈퇴 (buton)" style="text;html=1;align=center;verticalAlign=middle;resizable=0;points=[];autosize=1;fillColor=#f5f5f5;strokeColor=#666666;fontColor=#333333;" parent="1" vertex="1">
          <mxGeometry x="-213" y="-906" width="130" height="50" as="geometry" />
        </mxCell>
        <mxCell id="FxF3UWBgYlLPX7A-So-d-315" style="edgeStyle=orthogonalEdgeStyle;rounded=0;orthogonalLoop=1;jettySize=auto;html=1;entryX=0;entryY=0.5;entryDx=0;entryDy=0;" parent="1" source="FxF3UWBgYlLPX7A-So-d-316" target="FxF3UWBgYlLPX7A-So-d-312" edge="1">
          <mxGeometry x="-743" y="-1120" as="geometry">
            <Array as="points">
              <mxPoint x="-553" y="-891" />
              <mxPoint x="-243" y="-891" />
              <mxPoint x="-243" y="-766" />
            </Array>
          </mxGeometry>
        </mxCell>
        <mxCell id="FxF3UWBgYlLPX7A-So-d-316" value="" style="rounded=1;whiteSpace=wrap;html=1;fontColor=#000000;align=left;" parent="1" vertex="1">
          <mxGeometry x="-743" y="-1110" width="442" height="170" as="geometry" />
        </mxCell>
        <mxCell id="FxF3UWBgYlLPX7A-So-d-317" style="edgeStyle=orthogonalEdgeStyle;rounded=0;orthogonalLoop=1;jettySize=auto;html=1;entryX=1;entryY=0.5;entryDx=0;entryDy=0;" parent="1" source="FxF3UWBgYlLPX7A-So-d-314" target="FxF3UWBgYlLPX7A-So-d-316" edge="1">
          <mxGeometry x="-743" y="-1120" as="geometry">
            <Array as="points">
              <mxPoint x="-153" y="-1015" />
            </Array>
          </mxGeometry>
        </mxCell>
        <mxCell id="FxF3UWBgYlLPX7A-So-d-318" value="" style="rounded=0;whiteSpace=wrap;html=1;fillColor=#dae8fc;strokeColor=#6c8ebf;" parent="1" vertex="1">
          <mxGeometry x="-441" y="-980" width="120" height="30" as="geometry" />
        </mxCell>
        <mxCell id="FxF3UWBgYlLPX7A-So-d-319" value="" style="rounded=0;whiteSpace=wrap;html=1;fillColor=#f8cecc;strokeColor=#b85450;" parent="1" vertex="1">
          <mxGeometry x="-441" y="-1100" width="120" height="30" as="geometry" />
        </mxCell>
        <mxCell id="FxF3UWBgYlLPX7A-So-d-320" value="비밀번호 변경 입력&lt;br&gt;/member/pw.jsp" style="rounded=0;whiteSpace=wrap;html=1;" parent="1" vertex="1">
          <mxGeometry x="-441" y="-1040" width="120" height="60" as="geometry" />
        </mxCell>
        <mxCell id="FxF3UWBgYlLPX7A-So-d-321" value="비밀번호 변경 : 사용자에게 현재 비밀번호와 바꿀 비밀번호를 입력받아 변경" style="text;html=1;strokeColor=none;fillColor=none;align=left;verticalAlign=middle;whiteSpace=wrap;rounded=0;" parent="1" vertex="1">
          <mxGeometry x="-729" y="-1140" width="418" height="20" as="geometry" />
        </mxCell>
        <mxCell id="FxF3UWBgYlLPX7A-So-d-322" value="" style="edgeStyle=orthogonalEdgeStyle;rounded=0;orthogonalLoop=1;jettySize=auto;html=1;strokeColor=#0000FF;exitX=0.008;exitY=0.367;exitDx=0;exitDy=0;entryX=1;entryY=0.25;entryDx=0;entryDy=0;exitPerimeter=0;" parent="1" source="FxF3UWBgYlLPX7A-So-d-320" target="FxF3UWBgYlLPX7A-So-d-325" edge="1">
          <mxGeometry x="-743" y="-1120" as="geometry">
            <mxPoint x="-431" y="-778" as="sourcePoint" />
            <mxPoint x="-583" y="-1010" as="targetPoint" />
          </mxGeometry>
        </mxCell>
        <mxCell id="FxF3UWBgYlLPX7A-So-d-323" value="member_pw&lt;br&gt;change_pw" style="edgeLabel;html=1;align=left;verticalAlign=middle;resizable=0;points=[];" parent="FxF3UWBgYlLPX7A-So-d-322" vertex="1" connectable="0">
          <mxGeometry x="0.2488" relative="1" as="geometry">
            <mxPoint x="-19.5" y="-22.009999999999998" as="offset" />
          </mxGeometry>
        </mxCell>
        <mxCell id="FxF3UWBgYlLPX7A-So-d-324" value="비밀번호 검사 성공" style="edgeLabel;html=1;align=center;verticalAlign=middle;resizable=0;points=[];" parent="1" vertex="1" connectable="0">
          <mxGeometry x="-509.19882352941204" y="-901" as="geometry" />
        </mxCell>
        <mxCell id="FxF3UWBgYlLPX7A-So-d-325" value="비밀번호 변경처리&lt;br&gt;/member/pw.do&lt;br&gt;비밀번호 검사 후 수정" style="rounded=0;whiteSpace=wrap;html=1;fontColor=#FF3333;" parent="1" vertex="1">
          <mxGeometry x="-729" y="-1033" width="160" height="60" as="geometry" />
        </mxCell>
        <mxCell id="FxF3UWBgYlLPX7A-So-d-326" style="edgeStyle=orthogonalEdgeStyle;rounded=0;orthogonalLoop=1;jettySize=auto;html=1;exitX=1;exitY=0.75;exitDx=0;exitDy=0;" parent="1" source="FxF3UWBgYlLPX7A-So-d-325" edge="1">
          <mxGeometry x="-743" y="-1120" as="geometry">
            <mxPoint x="-563" y="-990" as="sourcePoint" />
            <mxPoint x="-443.00000000000045" y="-990" as="targetPoint" />
          </mxGeometry>
        </mxCell>
        <mxCell id="FxF3UWBgYlLPX7A-So-d-327" value="비밀번호 검사 실패" style="edgeLabel;html=1;align=center;verticalAlign=middle;resizable=0;points=[];" parent="FxF3UWBgYlLPX7A-So-d-326" vertex="1" connectable="0">
          <mxGeometry x="0.1616" relative="1" as="geometry">
            <mxPoint x="-6.67" as="offset" />
          </mxGeometry>
        </mxCell>
        <mxCell id="FxF3UWBgYlLPX7A-So-d-328" style="edgeStyle=orthogonalEdgeStyle;rounded=0;orthogonalLoop=1;jettySize=auto;html=1;entryX=0.5;entryY=1;entryDx=0;entryDy=0;" parent="1" source="FxF3UWBgYlLPX7A-So-d-329" target="FxF3UWBgYlLPX7A-So-d-351" edge="1">
          <mxGeometry x="-743" y="-1120" as="geometry">
            <Array as="points">
              <mxPoint x="-663" y="-601" />
              <mxPoint x="-153" y="-601" />
            </Array>
            <mxPoint x="-153" y="-680" as="targetPoint" />
          </mxGeometry>
        </mxCell>
        <mxCell id="FxF3UWBgYlLPX7A-So-d-329" value="" style="rounded=1;whiteSpace=wrap;html=1;fontColor=#000000;align=left;" parent="1" vertex="1">
          <mxGeometry x="-743" y="-850" width="442" height="194" as="geometry" />
        </mxCell>
        <mxCell id="FxF3UWBgYlLPX7A-So-d-330" style="edgeStyle=orthogonalEdgeStyle;rounded=0;orthogonalLoop=1;jettySize=auto;html=1;entryX=1;entryY=0.5;entryDx=0;entryDy=0;" parent="1" source="FxF3UWBgYlLPX7A-So-d-312" target="FxF3UWBgYlLPX7A-So-d-329" edge="1">
          <mxGeometry x="-743" y="-1120" as="geometry" />
        </mxCell>
        <mxCell id="FxF3UWBgYlLPX7A-So-d-331" value="회원 닉네임 수정: 사용자에게 비밀번호와 새로운&amp;nbsp; 닉네임을 받아서 변경한다.&amp;nbsp;" style="text;html=1;strokeColor=none;fillColor=none;align=left;verticalAlign=middle;whiteSpace=wrap;rounded=0;" parent="1" vertex="1">
          <mxGeometry x="-715" y="-870" width="390" height="20" as="geometry" />
        </mxCell>
        <mxCell id="FxF3UWBgYlLPX7A-So-d-332" value="" style="rounded=0;whiteSpace=wrap;html=1;fillColor=#dae8fc;strokeColor=#6c8ebf;" parent="1" vertex="1">
          <mxGeometry x="-441" y="-710" width="120" height="30" as="geometry" />
        </mxCell>
        <mxCell id="FxF3UWBgYlLPX7A-So-d-333" value="" style="rounded=0;whiteSpace=wrap;html=1;fillColor=#f8cecc;strokeColor=#b85450;" parent="1" vertex="1">
          <mxGeometry x="-441" y="-831" width="120" height="30" as="geometry" />
        </mxCell>
        <mxCell id="FxF3UWBgYlLPX7A-So-d-334" value="회원정보 수정 입력&lt;br&gt;/member/nickEdit.jsp" style="rounded=0;whiteSpace=wrap;html=1;" parent="1" vertex="1">
          <mxGeometry x="-441" y="-770" width="120" height="60" as="geometry" />
        </mxCell>
        <mxCell id="FxF3UWBgYlLPX7A-So-d-335" style="edgeStyle=orthogonalEdgeStyle;rounded=0;orthogonalLoop=1;jettySize=auto;html=1;exitX=1;exitY=0.75;exitDx=0;exitDy=0;entryX=0;entryY=0.75;entryDx=0;entryDy=0;" parent="1" source="FxF3UWBgYlLPX7A-So-d-337" target="FxF3UWBgYlLPX7A-So-d-334" edge="1">
          <mxGeometry x="-743" y="-1120" as="geometry" />
        </mxCell>
        <mxCell id="FxF3UWBgYlLPX7A-So-d-336" value="비밀번호 검사 실패" style="edgeLabel;html=1;align=center;verticalAlign=middle;resizable=0;points=[];" parent="FxF3UWBgYlLPX7A-So-d-335" vertex="1" connectable="0">
          <mxGeometry x="0.1616" relative="1" as="geometry">
            <mxPoint x="-6.67" as="offset" />
          </mxGeometry>
        </mxCell>
        <mxCell id="FxF3UWBgYlLPX7A-So-d-337" value="닉네임 수정 처리&lt;br&gt;/member/nickEdit.do&lt;br&gt;세션의 회원번호로 정보수정" style="rounded=0;whiteSpace=wrap;html=1;fontColor=#FF3333;" parent="1" vertex="1">
          <mxGeometry x="-733" y="-770" width="160" height="60" as="geometry" />
        </mxCell>
        <mxCell id="FxF3UWBgYlLPX7A-So-d-338" value="" style="edgeStyle=orthogonalEdgeStyle;rounded=0;orthogonalLoop=1;jettySize=auto;html=1;strokeColor=#0000FF;exitX=0;exitY=0.25;exitDx=0;exitDy=0;entryX=1;entryY=0.25;entryDx=0;entryDy=0;" parent="1" source="FxF3UWBgYlLPX7A-So-d-334" target="FxF3UWBgYlLPX7A-So-d-337" edge="1">
          <mxGeometry x="-743" y="-1120" as="geometry" />
        </mxCell>
        <mxCell id="FxF3UWBgYlLPX7A-So-d-339" value="member_pw&lt;br&gt;member_nick" style="edgeLabel;html=1;align=left;verticalAlign=middle;resizable=0;points=[];" parent="FxF3UWBgYlLPX7A-So-d-338" vertex="1" connectable="0">
          <mxGeometry x="0.2488" relative="1" as="geometry">
            <mxPoint x="-19.5" y="-25" as="offset" />
          </mxGeometry>
        </mxCell>
        <mxCell id="FxF3UWBgYlLPX7A-So-d-340" value="" style="rounded=1;whiteSpace=wrap;html=1;fontColor=#000000;align=left;" parent="1" vertex="1">
          <mxGeometry x="-651" y="-580" width="350" height="205" as="geometry" />
        </mxCell>
        <mxCell id="FxF3UWBgYlLPX7A-So-d-341" style="edgeStyle=orthogonalEdgeStyle;rounded=0;orthogonalLoop=1;jettySize=auto;html=1;entryX=1;entryY=0.5;entryDx=0;entryDy=0;" parent="1" target="FxF3UWBgYlLPX7A-So-d-340" edge="1">
          <mxGeometry x="-743" y="-1120" as="geometry">
            <mxPoint x="-213" y="-721" as="sourcePoint" />
          </mxGeometry>
        </mxCell>
        <mxCell id="FxF3UWBgYlLPX7A-So-d-342" value="회원탈퇴&lt;br&gt;/member/delete.do&lt;br&gt;회원정보삭제+로그아웃" style="rounded=0;whiteSpace=wrap;html=1;fontColor=#FF3333;" parent="1" vertex="1">
          <mxGeometry x="-461" y="-498" width="150" height="60" as="geometry" />
        </mxCell>
        <mxCell id="FxF3UWBgYlLPX7A-So-d-343" value="" style="rounded=0;whiteSpace=wrap;html=1;fillColor=#dae8fc;strokeColor=#6c8ebf;" parent="1" vertex="1">
          <mxGeometry x="-629" y="-438" width="120" height="30" as="geometry" />
        </mxCell>
        <mxCell id="FxF3UWBgYlLPX7A-So-d-344" value="" style="rounded=0;whiteSpace=wrap;html=1;fillColor=#f8cecc;strokeColor=#b85450;" parent="1" vertex="1">
          <mxGeometry x="-629" y="-558" width="120" height="30" as="geometry" />
        </mxCell>
        <mxCell id="FxF3UWBgYlLPX7A-So-d-345" value="탈퇴완료&lt;br&gt;/member/goodbye.jsp" style="rounded=0;whiteSpace=wrap;html=1;" parent="1" vertex="1">
          <mxGeometry x="-629" y="-498" width="120" height="60" as="geometry" />
        </mxCell>
        <mxCell id="FxF3UWBgYlLPX7A-So-d-346" value="" style="edgeStyle=orthogonalEdgeStyle;rounded=0;orthogonalLoop=1;jettySize=auto;html=1;entryX=1;entryY=0.5;entryDx=0;entryDy=0;" parent="1" source="FxF3UWBgYlLPX7A-So-d-342" target="FxF3UWBgYlLPX7A-So-d-345" edge="1">
          <mxGeometry x="-743" y="-1120" as="geometry" />
        </mxCell>
        <mxCell id="FxF3UWBgYlLPX7A-So-d-347" value="&lt;span style=&quot;color: rgb(255 , 51 , 51)&quot;&gt;세션의 데이터 제거&lt;br&gt;numbe=사용자번호&lt;br&gt;auth=사용자권한&lt;br&gt;&lt;/span&gt;" style="text;html=1;strokeColor=none;fillColor=none;align=left;verticalAlign=middle;whiteSpace=wrap;rounded=0;" parent="1" vertex="1">
          <mxGeometry x="-461" y="-438" width="120" height="57" as="geometry" />
        </mxCell>
        <mxCell id="FxF3UWBgYlLPX7A-So-d-348" value="닉네임 수정 성공시" style="text;html=1;align=center;verticalAlign=middle;resizable=0;points=[];autosize=1;" parent="1" vertex="1">
          <mxGeometry x="-604.2" y="-621" width="110" height="20" as="geometry" />
        </mxCell>
        <mxCell id="FxF3UWBgYlLPX7A-So-d-349" value="" style="rounded=0;whiteSpace=wrap;html=1;fillColor=#f8cecc;strokeColor=#b85450;" parent="1" vertex="1">
          <mxGeometry x="-213" y="-856" width="120" height="30" as="geometry" />
        </mxCell>
        <mxCell id="FxF3UWBgYlLPX7A-So-d-350" value="" style="rounded=0;whiteSpace=wrap;html=1;fillColor=#d5e8d4;strokeColor=#82b366;" parent="1" vertex="1">
          <mxGeometry x="-213" y="-826" width="120" height="30" as="geometry" />
        </mxCell>
        <mxCell id="FxF3UWBgYlLPX7A-So-d-351" value="" style="rounded=0;whiteSpace=wrap;html=1;fillColor=#dae8fc;strokeColor=#6c8ebf;" parent="1" vertex="1">
          <mxGeometry x="-213" y="-736" width="120" height="30" as="geometry" />
        </mxCell>
        <mxCell id="FxF3UWBgYlLPX7A-So-d-352" value="" style="rounded=0;whiteSpace=wrap;html=1;fillColor=#d5e8d4;strokeColor=#82b366;" parent="1" vertex="1">
          <mxGeometry x="-629" y="-528" width="120" height="30" as="geometry" />
        </mxCell>
        <mxCell id="FxF3UWBgYlLPX7A-So-d-353" value="" style="rounded=0;whiteSpace=wrap;html=1;fillColor=#d5e8d4;strokeColor=#82b366;" parent="1" vertex="1">
          <mxGeometry x="-441" y="-1070" width="120" height="30" as="geometry" />
        </mxCell>
        <mxCell id="FxF3UWBgYlLPX7A-So-d-354" value="" style="rounded=0;whiteSpace=wrap;html=1;fillColor=#d5e8d4;strokeColor=#82b366;" parent="1" vertex="1">
          <mxGeometry x="77" y="-1110" width="120" height="30" as="geometry" />
        </mxCell>
        <mxCell id="FxF3UWBgYlLPX7A-So-d-355" value="" style="rounded=0;whiteSpace=wrap;html=1;fillColor=#d5e8d4;strokeColor=#82b366;" parent="1" vertex="1">
          <mxGeometry x="-441" y="-800" width="120" height="30" as="geometry" />
        </mxCell>
        <mxCell id="FxF3UWBgYlLPX7A-So-d-356" value="" style="endArrow=classic;html=1;entryX=0.25;entryY=1;entryDx=0;entryDy=0;" parent="1" target="FxF3UWBgYlLPX7A-So-d-279" edge="1">
          <mxGeometry width="50" height="50" relative="1" as="geometry">
            <mxPoint x="417" y="766" as="sourcePoint" />
            <mxPoint x="209" y="-194" as="targetPoint" />
            <Array as="points">
              <mxPoint x="142" y="766" />
            </Array>
          </mxGeometry>
        </mxCell>
        <mxCell id="FxF3UWBgYlLPX7A-So-d-357" value="비로그인 상태에서 등록하기 버튼 누르면&lt;br&gt;로그인창으로 이동시키기" style="edgeLabel;html=1;align=center;verticalAlign=middle;resizable=0;points=[];" parent="FxF3UWBgYlLPX7A-So-d-356" vertex="1" connectable="0">
          <mxGeometry x="-0.6953" y="2" relative="1" as="geometry">
            <mxPoint x="-75" y="-8" as="offset" />
          </mxGeometry>
        </mxCell>
        <mxCell id="FxF3UWBgYlLPX7A-So-d-358" value="" style="endArrow=classic;html=1;entryX=0;entryY=0;entryDx=0;entryDy=0;" parent="1" target="FxF3UWBgYlLPX7A-So-d-227" edge="1">
          <mxGeometry width="50" height="50" relative="1" as="geometry">
            <mxPoint x="141" y="776" as="sourcePoint" />
            <mxPoint x="141" y="1672" as="targetPoint" />
            <Array as="points">
              <mxPoint x="141" y="1465" />
            </Array>
          </mxGeometry>
        </mxCell>
        <mxCell id="FxF3UWBgYlLPX7A-So-d-359" value="비로그인 상태에서 등록하기 버튼 누르면&lt;br&gt;로그인창으로 이동시키기" style="edgeLabel;html=1;align=center;verticalAlign=middle;resizable=0;points=[];" parent="FxF3UWBgYlLPX7A-So-d-358" vertex="1" connectable="0">
          <mxGeometry x="0.0746" y="-1" relative="1" as="geometry">
            <mxPoint as="offset" />
          </mxGeometry>
        </mxCell>
        <mxCell id="FxF3UWBgYlLPX7A-So-d-360" value="" style="rounded=1;whiteSpace=wrap;html=1;strokeColor=#000000;fontColor=#000000;align=left;arcSize=5;" parent="1" vertex="1">
          <mxGeometry x="498" y="1850" width="513" height="189" as="geometry" />
        </mxCell>
        <mxCell id="FxF3UWBgYlLPX7A-So-d-361" value="8. 검색/ 게시글 최신순, 댓글순" style="shape=callout;whiteSpace=wrap;html=1;perimeter=calloutPerimeter;align=center;fillColor=#f5f5f5;strokeColor=#666666;fontColor=#333333;position2=0.5;size=10;position=0.5;" parent="1" vertex="1">
          <mxGeometry x="513" y="1829" width="175" height="40" as="geometry" />
        </mxCell>
        <mxCell id="FxF3UWBgYlLPX7A-So-d-362" value="" style="rounded=0;whiteSpace=wrap;html=1;fillColor=#f8cecc;strokeColor=#b85450;" parent="1" vertex="1">
          <mxGeometry x="513" y="1876" width="120" height="30" as="geometry" />
        </mxCell>
        <mxCell id="FxF3UWBgYlLPX7A-So-d-363" value="" style="rounded=0;whiteSpace=wrap;html=1;fillColor=#dae8fc;strokeColor=#6c8ebf;" parent="1" vertex="1">
          <mxGeometry x="513" y="1996" width="120" height="30" as="geometry" />
        </mxCell>
        <mxCell id="FxF3UWBgYlLPX7A-So-d-364" value="" style="rounded=0;whiteSpace=wrap;html=1;fillColor=#d5e8d4;strokeColor=#82b366;" parent="1" vertex="1">
          <mxGeometry x="513" y="1906" width="120" height="30" as="geometry" />
        </mxCell>
        <mxCell id="FxF3UWBgYlLPX7A-So-d-365" value="" style="rounded=0;whiteSpace=wrap;html=1;fillColor=#f8cecc;strokeColor=#b85450;" parent="1" vertex="1">
          <mxGeometry x="733" y="1794" width="120" height="30" as="geometry" />
        </mxCell>
        <mxCell id="FxF3UWBgYlLPX7A-So-d-366" value="여행 Q&amp;amp;A메인페이지&lt;br&gt;/qna_board/list.jsp?&lt;br&gt;isSearch&amp;amp;type&amp;amp;key" style="rounded=0;whiteSpace=wrap;html=1;" parent="1" vertex="1">
          <mxGeometry x="733" y="1854" width="120" height="60" as="geometry" />
        </mxCell>
        <mxCell id="FxF3UWBgYlLPX7A-So-d-367" value="" style="rounded=0;whiteSpace=wrap;html=1;fillColor=#dae8fc;strokeColor=#6c8ebf;" parent="1" vertex="1">
          <mxGeometry x="733" y="1914" width="120" height="30" as="geometry" />
        </mxCell>
        <mxCell id="FxF3UWBgYlLPX7A-So-d-368" value="" style="rounded=0;whiteSpace=wrap;html=1;fillColor=#d5e8d4;strokeColor=#82b366;" parent="1" vertex="1">
          <mxGeometry x="733" y="1824" width="120" height="30" as="geometry" />
        </mxCell>
        <mxCell id="FxF3UWBgYlLPX7A-So-d-369" value="여행 Q&amp;amp;A메인페이지&lt;br&gt;/qna_board/list.jsp" style="rounded=0;whiteSpace=wrap;html=1;" parent="1" vertex="1">
          <mxGeometry x="513" y="1936" width="120" height="60" as="geometry" />
        </mxCell>
        <mxCell id="FxF3UWBgYlLPX7A-So-d-370" value="" style="endArrow=classic;html=1;exitX=1;exitY=0.5;exitDx=0;exitDy=0;entryX=0;entryY=1;entryDx=0;entryDy=0;" parent="1" edge="1">
          <mxGeometry width="50" height="50" relative="1" as="geometry">
            <mxPoint x="635" y="1962" as="sourcePoint" />
            <mxPoint x="735" y="1910" as="targetPoint" />
          </mxGeometry>
        </mxCell>
        <mxCell id="FxF3UWBgYlLPX7A-So-d-371" value="type,keyword" style="edgeLabel;html=1;align=center;verticalAlign=middle;resizable=0;points=[];" parent="FxF3UWBgYlLPX7A-So-d-370" vertex="1" connectable="0">
          <mxGeometry x="-0.3145" y="-1" relative="1" as="geometry">
            <mxPoint x="7.94" y="-8.89" as="offset" />
          </mxGeometry>
        </mxCell>
        <mxCell id="FxF3UWBgYlLPX7A-So-d-372" value="" style="rounded=0;whiteSpace=wrap;html=1;fillColor=#f8cecc;strokeColor=#b85450;" parent="1" vertex="1">
          <mxGeometry x="733" y="1972" width="120" height="30" as="geometry" />
        </mxCell>
        <mxCell id="FxF3UWBgYlLPX7A-So-d-373" value="여행 Q&amp;amp;A메인페이지&lt;br&gt;/qna_board/list.jsp?&lt;br&gt;isSearch" style="rounded=0;whiteSpace=wrap;html=1;" parent="1" vertex="1">
          <mxGeometry x="733" y="2032" width="120" height="60" as="geometry" />
        </mxCell>
        <mxCell id="FxF3UWBgYlLPX7A-So-d-374" value="" style="rounded=0;whiteSpace=wrap;html=1;fillColor=#dae8fc;strokeColor=#6c8ebf;" parent="1" vertex="1">
          <mxGeometry x="733" y="2092" width="120" height="30" as="geometry" />
        </mxCell>
        <mxCell id="FxF3UWBgYlLPX7A-So-d-375" value="" style="rounded=0;whiteSpace=wrap;html=1;fillColor=#d5e8d4;strokeColor=#82b366;" parent="1" vertex="1">
          <mxGeometry x="733" y="2002" width="120" height="30" as="geometry" />
        </mxCell>
        <mxCell id="FxF3UWBgYlLPX7A-So-d-376" value="" style="rounded=0;whiteSpace=wrap;html=1;fillColor=#f8cecc;strokeColor=#b85450;" parent="1" vertex="1">
          <mxGeometry x="876" y="1794" width="120" height="30" as="geometry" />
        </mxCell>
        <mxCell id="FxF3UWBgYlLPX7A-So-d-377" value="여행 Q&amp;amp;A메인페이지&lt;br&gt;/qna_board/list.jsp?isOrder&amp;amp;type&amp;amp;key" style="rounded=0;whiteSpace=wrap;html=1;" parent="1" vertex="1">
          <mxGeometry x="876" y="1854" width="120" height="60" as="geometry" />
        </mxCell>
        <mxCell id="FxF3UWBgYlLPX7A-So-d-378" value="" style="rounded=0;whiteSpace=wrap;html=1;fillColor=#dae8fc;strokeColor=#6c8ebf;" parent="1" vertex="1">
          <mxGeometry x="876" y="1914" width="120" height="30" as="geometry" />
        </mxCell>
        <mxCell id="FxF3UWBgYlLPX7A-So-d-379" value="" style="rounded=0;whiteSpace=wrap;html=1;fillColor=#d5e8d4;strokeColor=#82b366;" parent="1" vertex="1">
          <mxGeometry x="876" y="1824" width="120" height="30" as="geometry" />
        </mxCell>
        <mxCell id="FxF3UWBgYlLPX7A-So-d-380" value="" style="rounded=0;whiteSpace=wrap;html=1;fillColor=#f8cecc;strokeColor=#b85450;" parent="1" vertex="1">
          <mxGeometry x="876" y="1972" width="120" height="30" as="geometry" />
        </mxCell>
        <mxCell id="FxF3UWBgYlLPX7A-So-d-381" value="여행 Q&amp;amp;A메인페이지&lt;br&gt;/qna_board/list.jsp?&lt;br&gt;isOrder" style="rounded=0;whiteSpace=wrap;html=1;" parent="1" vertex="1">
          <mxGeometry x="876" y="2032" width="120" height="60" as="geometry" />
        </mxCell>
        <mxCell id="FxF3UWBgYlLPX7A-So-d-382" value="" style="rounded=0;whiteSpace=wrap;html=1;fillColor=#dae8fc;strokeColor=#6c8ebf;" parent="1" vertex="1">
          <mxGeometry x="876" y="2092" width="120" height="30" as="geometry" />
        </mxCell>
        <mxCell id="FxF3UWBgYlLPX7A-So-d-383" value="" style="rounded=0;whiteSpace=wrap;html=1;fillColor=#d5e8d4;strokeColor=#82b366;" parent="1" vertex="1">
          <mxGeometry x="876" y="2002" width="120" height="30" as="geometry" />
        </mxCell>
      </root>
    </mxGraphModel>
  </diagram>
</mxfile>
